<?xml version="1.0" encoding="UTF-8" standalone="no"?>
<!-- Created with Inkscape (http://www.inkscape.org/) -->

<svg
   width="97mm"
   height="74mm"
   viewBox="0 0 97 74"
   version="1.1"
   id="svg1"
   inkscape:version="1.3.2 (091e20e, 2023-11-25)"
   sodipodi:docname="correct.svg"
   xml:space="preserve"
   xmlns:inkscape="http://www.inkscape.org/namespaces/inkscape"
   xmlns:sodipodi="http://sodipodi.sourceforge.net/DTD/sodipodi-0.dtd"
   xmlns="http://www.w3.org/2000/svg"
   xmlns:svg="http://www.w3.org/2000/svg"><sodipodi:namedview
     id="namedview1"
     pagecolor="#505050"
     bordercolor="#eeeeee"
     borderopacity="1"
     inkscape:showpageshadow="0"
     inkscape:pageopacity="0"
     inkscape:pagecheckerboard="0"
     inkscape:deskcolor="#505050"
     inkscape:document-units="mm"
     inkscape:zoom="1.4217087"
     inkscape:cx="230.00492"
     inkscape:cy="133.99369"
     inkscape:window-width="1512"
     inkscape:window-height="806"
     inkscape:window-x="874"
     inkscape:window-y="390"
     inkscape:window-maximized="0"
     inkscape:current-layer="layer1" /><defs
     id="defs1" /><g
     inkscape:label="Layer 1"
     inkscape:groupmode="layer"
     id="layer1"><rect
       style="fill:#f9f9f9;fill-opacity:1;stroke:none;stroke-width:0.570017;paint-order:markers stroke fill"
       id="rect2"
       width="109.68867"
       height="86.898155"
       x="-7.6327653"
       y="-4.4075041" /><path
       d="m 20.79582,41.113086 q 0.349271,-0.34927 0.785858,-0.392929 0.458418,-0.06549 0.829517,0.109147 0.3711,0.174635 0.567565,0.567564 0.218293,0.3711 0.109147,0.895005 -0.130977,0.523906 -0.502076,0.982323 -0.3711,0.436588 -0.7422,0.807687 -0.851346,0.895005 -1.899157,1.309764 -1.025981,0.436588 -2.095622,0.414758 -1.04781,-0.02183 -2.073792,-0.502076 -1.004152,-0.480246 -1.811839,-1.44074 -0.480247,-0.567564 -0.807688,-1.200616 -0.327441,-0.633053 -0.502076,-1.331593 -0.261953,-1.025981 -0.240123,-2.13928 0.02183,-1.1133 0.34927,-2.16111 0.327441,-1.047811 0.916834,-1.964646 0.611223,-0.938663 1.484399,-1.593545 0.633053,-0.480247 1.266105,-0.829517 0.654882,-0.34927 1.375252,-0.654882 0.414758,-0.174635 0.851346,-0.327441 0.436588,-0.174635 0.895005,-0.261953 0.458417,-0.08732 0.916834,-0.06549 0.458418,0.02183 0.895006,0.196465 0.305611,0.130976 0.611223,0.371099 0.305611,0.218294 0.567564,0.523906 0.261952,0.283782 0.458417,0.611223 0.196464,0.327441 0.283782,0.633052 0.06549,0.283782 0.02183,0.589394 -0.02183,0.283782 -0.174635,0.523905 -0.130976,0.240124 -0.371099,0.414759 -0.240124,0.152805 -0.545735,0.196464 -0.502076,0.06549 -0.785858,-0.109147 -0.261953,-0.174635 -0.436588,-0.436588 -0.152806,-0.261952 -0.305612,-0.502076 -0.152805,-0.261952 -0.436587,-0.371099 -0.174636,0 -0.261953,0.02183 -0.7422,0.196465 -1.506228,0.545735 -0.7422,0.327441 -1.397081,0.807687 -0.633053,0.480247 -1.113299,1.113299 -0.480247,0.633053 -0.698541,1.418911 -0.261953,0.938664 -0.196464,1.899157 0.06549,0.960493 0.523905,1.81184 0.261953,0.502076 0.698541,0.873175 0.436587,0.3711 0.960493,0.567565 0.523905,0.174635 1.06964,0.130976 0.545735,-0.06549 1.047811,-0.392929 0.436588,-0.305612 0.785858,-0.7422 0.34927,-0.458417 0.633052,-0.916834 z m 3.247952,-1.375252 q 0.152805,-0.633052 0.414758,-1.244275 0.283782,-0.611223 0.676711,-1.156958 0.392929,-0.567564 0.873176,-1.025981 0.502076,-0.458418 1.06964,-0.7422 1.004152,-0.523905 2.008304,-0.523905 1.025982,-0.02183 1.899157,0.392929 0.873176,0.414758 1.484399,1.244275 0.611223,0.807688 0.807688,1.942816 0.109147,0.7422 0.109147,1.418911 0.02183,0.654882 -0.130977,1.375252 -0.218294,1.025981 -0.895005,2.051962 -0.654882,1.004152 -1.593546,1.680864 -0.916834,0.69854 -2.030133,0.916834 -1.09147,0.218294 -2.204769,-0.34927 -0.502076,-0.240124 -0.916834,-0.567564 -0.392929,-0.305612 -0.72037,-0.7422 -0.3711,-0.480246 -0.589394,-1.004152 -0.196464,-0.523905 -0.32744,-1.091469 -0.152806,-0.611223 -0.109147,-1.222446 0.04366,-0.633053 0.152805,-1.222446 z m 2.619527,0.458418 q -0.06549,0.34927 -0.109147,0.69854 -0.04366,0.327441 0,0.676711 0.06549,0.502076 0.261952,0.916835 0.218294,0.414758 0.545735,0.654881 0.349271,0.240124 0.785858,0.261953 0.436588,0 0.938664,-0.283782 0.633053,-0.3711 1.09147,-1.135128 0.458417,-0.785858 0.567564,-1.615375 0.109147,-0.851347 -0.174635,-1.593546 -0.283782,-0.764029 -1.113299,-1.09147 -0.545735,0 -1.004152,0.218294 -0.458417,0.196465 -0.807688,0.545735 -0.32744,0.327441 -0.589393,0.785858 -0.240124,0.458418 -0.392929,0.960494 z m 8.421539,-1.920987 q 0,0.08732 0.02183,-0.04366 0.02183,-0.152806 -0.02183,-0.523905 -0.34927,-0.196465 -0.545735,-0.502076 -0.196464,-0.305612 -0.240123,-0.654882 -0.02183,-0.34927 0.130976,-0.654882 0.174635,-0.327441 0.545735,-0.545735 0.502076,-0.283782 1.09147,-0.109146 0.611223,0.174635 1.047811,0.523905 0.545734,-0.414759 1.135128,-0.698541 0.589393,-0.283782 1.200616,-0.371099 0.611223,-0.109147 1.244276,0.02183 0.633052,0.130976 1.244275,0.545735 0.305612,0.196464 0.567564,0.502076 0.261953,0.283782 0.327441,0.654882 0.109147,0.545734 -0.08732,0.960493 -0.196465,0.392929 -0.545735,0.589394 -0.34927,0.174635 -0.785858,0.109146 -0.436588,-0.08732 -0.829517,-0.480246 -0.130976,-0.08732 -0.196465,-0.130976 -0.04366,-0.06549 -0.218294,-0.152806 -0.34927,-0.08732 -0.69854,0.04366 -0.327441,0.130976 -0.654882,0.371099 -0.305611,0.218294 -0.589393,0.502076 -0.261953,0.261953 -0.480247,0.480247 v 5.566495 q 0,0.327441 -0.130976,0.633052 -0.196465,0.502076 -0.633053,0.698541 -0.414758,0.196464 -0.851346,0.109147 Q 35.71789,45.63177 35.39045,45.2825 35.084838,44.93323 35.084838,44.387495 v -6.11223 z m 9.403864,0 q 0,0.08732 0.02183,-0.04366 0.02183,-0.152806 -0.02183,-0.523905 -0.34927,-0.196465 -0.545735,-0.502076 -0.196464,-0.305612 -0.240123,-0.654882 -0.02183,-0.34927 0.130976,-0.654882 0.174635,-0.327441 0.545735,-0.545735 0.502076,-0.283782 1.09147,-0.109146 0.611223,0.174635 1.04781,0.523905 0.545735,-0.414759 1.135129,-0.698541 0.589393,-0.283782 1.200616,-0.371099 0.611223,-0.109147 1.244276,0.02183 0.633052,0.130976 1.244275,0.545735 0.305612,0.196464 0.567564,0.502076 0.261953,0.283782 0.327441,0.654882 0.109147,0.545734 -0.08732,0.960493 -0.196465,0.392929 -0.545735,0.589394 -0.34927,0.174635 -0.785858,0.109146 -0.436588,-0.08732 -0.829517,-0.480246 -0.130977,-0.08732 -0.196465,-0.130976 -0.04366,-0.06549 -0.218294,-0.152806 -0.34927,-0.08732 -0.69854,0.04366 -0.327441,0.130976 -0.654882,0.371099 -0.305611,0.218294 -0.589394,0.502076 -0.261952,0.261953 -0.480246,0.480247 v 5.566495 q 0,0.327441 -0.130977,0.633052 -0.196464,0.502076 -0.633052,0.698541 -0.414758,0.196464 -0.851346,0.109147 -0.414759,-0.08732 -0.7422,-0.436588 -0.305611,-0.34927 -0.305611,-0.895005 v -6.11223 z m 15.647092,3.754655 q 0.523906,-0.130976 0.916835,0 0.414758,0.109147 0.633052,0.39293 0.218294,0.283782 0.196465,0.69854 -0.02183,0.414759 -0.3711,0.873176 -0.283782,0.371099 -0.785858,0.633052 -0.502076,0.261953 -0.938664,0.414759 -1.06964,0.392929 -2.030134,0.545734 -0.960493,0.152806 -1.811839,0 -0.829517,-0.152805 -1.571716,-0.633052 -0.72037,-0.480247 -1.353423,-1.353422 -0.436587,-0.589394 -0.654881,-1.331593 -0.196465,-0.764029 -0.218294,-1.549887 -0.02183,-0.785858 0.130976,-1.549887 0.152806,-0.764029 0.436588,-1.375252 0.3711,-0.764028 1.178787,-1.397081 0.807688,-0.633052 1.79001,-1.004152 0.982323,-0.371099 2.008304,-0.414758 1.025982,-0.06549 1.81184,0.305611 0.654882,0.305612 1.113299,0.895005 0.480246,0.567565 0.654882,1.244276 0.174635,0.676711 0.02183,1.375251 -0.130976,0.676712 -0.698541,1.244276 -0.545734,0.545735 -1.200616,0.895005 -0.654882,0.327441 -1.353422,0.589393 -0.698541,0.240124 -1.44074,0.414759 -0.72037,0.174635 -1.397081,0.392929 0.458417,0.523905 1.04781,0.676711 0.589394,0.130976 1.222446,0.04366 0.654882,-0.08732 1.309764,-0.34927 0.654882,-0.283782 1.222446,-0.611223 z m -4.409537,-3.754655 q -0.502076,0.283782 -0.742199,0.72037 -0.240124,0.414758 -0.349271,1.178787 0.567565,-0.174635 1.266105,-0.3711 0.72037,-0.196464 1.353422,-0.414758 0.633053,-0.218294 1.069641,-0.480247 0.436588,-0.261952 0.436588,-0.567564 0,-0.174635 -0.06549,-0.327441 -0.04366,-0.174635 -0.218294,-0.240123 -0.611223,-0.218294 -1.266104,-0.08732 -0.654882,0.130977 -1.09147,0.3711 z m 13.311336,3.95112 q 0.545734,-0.34927 1.025981,-0.305611 0.502076,0.04366 0.807688,0.34927 0.32744,0.283782 0.34927,0.785858 0.04366,0.480247 -0.327441,1.025981 -0.240123,0.3711 -0.698541,0.676712 -0.436587,0.305611 -0.851346,0.480246 -0.960493,0.436588 -1.942816,0.392929 -0.982323,-0.04366 -1.833669,-0.480246 -0.829517,-0.436588 -1.44074,-1.200617 -0.611223,-0.785858 -0.829517,-1.81184 -0.436587,-1.964645 0.174636,-3.776484 0.240123,-0.654882 0.567564,-1.266105 0.34927,-0.611223 0.829517,-1.113299 0.480246,-0.502076 1.06964,-0.873176 0.589393,-0.392929 1.287934,-0.523905 0.480247,-0.08732 1.222446,0.02183 0.742199,0.08732 1.44074,0.3711 0.72037,0.283782 1.244275,0.742199 0.545735,0.458417 0.611223,1.09147 0.04366,0.34927 -0.08732,0.654882 -0.130977,0.283782 -0.3711,0.480246 -0.240123,0.196465 -0.567564,0.283782 -0.305612,0.06549 -0.633053,-0.02183 -0.392929,-0.109147 -0.633052,-0.283782 -0.218294,-0.196465 -0.589394,-0.502076 -0.174635,-0.04366 -0.32744,-0.130977 -0.152806,-0.109147 -0.327441,-0.08732 l -0.589394,0.06549 q -0.152806,0.08732 -0.283782,0.152806 -0.130976,0.06549 -0.261953,0.130976 -0.742199,0.742199 -1.091469,1.659034 -0.349271,0.895005 -0.174635,1.942816 0.109146,0.676711 0.414758,1.113299 0.327441,0.436588 0.742199,0.611223 0.436588,0.152806 0.938664,0.02183 0.523906,-0.130976 1.025982,-0.589393 z m 4.90702,-4.540514 q -0.436588,-0.109147 -0.764029,-0.371099 -0.305611,-0.261953 -0.436588,-0.611223 -0.109147,-0.34927 0,-0.72037 0.130977,-0.3711 0.545735,-0.676711 0.34927,-0.261953 0.785858,-0.261953 0.436588,0 0.851347,0 0,-0.152806 -0.02183,-0.654882 -0.02183,-0.523905 -0.02183,-1.135128 0.02183,-0.611223 0.08732,-1.156958 0.06549,-0.567564 0.240124,-0.785858 0.436587,-0.611223 1.06964,-0.567564 0.654882,0.02183 1.06964,0.611223 0.08732,0.109147 0.152806,0.261952 0.08732,0.152806 0.08732,0.283782 0.02183,0.785859 0,1.571717 0,0.785858 0,1.571716 h 1.724522 q 0.392929,0 0.676712,0.261953 0.283782,0.261952 0.392929,0.611223 0.130976,0.34927 0.06549,0.72037 -0.04366,0.371099 -0.327441,0.611223 -0.502076,0.414758 -1.178787,0.436587 -0.654882,0.02183 -1.353423,0.02183 0,1.200616 -0.02183,2.401233 0,1.200617 0.02183,2.401233 0,0.523906 0.04366,1.06964 0.06549,0.545735 -0.06549,1.047811 -0.109147,0.392929 -0.3711,0.611223 -0.261952,0.240123 -0.589393,0.283782 -0.327441,0.06549 -0.676711,-0.04366 -0.349271,-0.08732 -0.654882,-0.34927 -0.152806,-0.152806 -0.240124,-0.523905 -0.06549,-0.3711 -0.08732,-0.785858 -0.02183,-0.480247 0,-1.025982 0,-0.436588 0,-1.135128 0,-0.698541 -0.02183,-1.44074 0,-0.764029 0,-1.44074 0,-0.676711 0,-1.06964 z m 9.447481,6.068571 q 0,0.545735 -0.261953,0.938664 -0.240123,0.3711 -0.611223,0.567565 -0.371099,0.196464 -0.829516,0.196464 -0.436588,0.02183 -0.829517,-0.152806 -0.392929,-0.152805 -0.676712,-0.502076 -0.261952,-0.34927 -0.305611,-0.895005 -0.04366,-0.567564 0.196465,-0.938664 0.261952,-0.392929 0.654881,-0.589393 0.392929,-0.196465 0.851347,-0.196465 0.458417,-0.02183 0.851346,0.152806 0.414758,0.152806 0.676711,0.523905 0.283782,0.349271 0.283782,0.895005 z"
       id="text1"
       style="font-weight:bold;font-size:19.7556px;line-height:0.9;font-family:Chalkboard;-inkscape-font-specification:'Chalkboard Bold';text-align:center;letter-spacing:-0.288396px;text-anchor:middle;fill:#ffffff;stroke:#000000;stroke-width:2.5;paint-order:markers stroke fill"
       aria-label="Correct." /></g></svg>
