<?xml version="1.0" encoding="UTF-8" standalone="no"?>
<!-- Created with Inkscape (http://www.inkscape.org/) -->

<svg
   width="135mm"
   height="121mm"
   viewBox="0 0 135 121"
   version="1.1"
   id="svg1"
   inkscape:version="1.3.2 (091e20e, 2023-11-25)"
   sodipodi:docname="crow_with_gnome_hat_closed.svg"
   xml:space="preserve"
   xmlns:inkscape="http://www.inkscape.org/namespaces/inkscape"
   xmlns:sodipodi="http://sodipodi.sourceforge.net/DTD/sodipodi-0.dtd"
   xmlns:xlink="http://www.w3.org/1999/xlink"
   xmlns="http://www.w3.org/2000/svg"
   xmlns:svg="http://www.w3.org/2000/svg"><sodipodi:namedview
     id="namedview1"
     pagecolor="#505050"
     bordercolor="#eeeeee"
     borderopacity="1"
     inkscape:showpageshadow="0"
     inkscape:pageopacity="0"
     inkscape:pagecheckerboard="0"
     inkscape:deskcolor="#505050"
     inkscape:document-units="mm"
     inkscape:zoom="5.2940097"
     inkscape:cx="289.95036"
     inkscape:cy="136.475"
     inkscape:window-width="1392"
     inkscape:window-height="1212"
     inkscape:window-x="1583"
     inkscape:window-y="85"
     inkscape:window-maximized="0"
     inkscape:current-layer="layer1" /><defs
     id="defs1"><linearGradient
       id="linearGradient24"
       inkscape:collect="always"><stop
         style="stop-color:#535d6c;stop-opacity:1;"
         offset="0"
         id="stop24" /><stop
         style="stop-color:#383f4a;stop-opacity:1;"
         offset="1"
         id="stop25" /></linearGradient><linearGradient
       id="linearGradient22"
       inkscape:collect="always"><stop
         style="stop-color:#535d6c;stop-opacity:1;"
         offset="0"
         id="stop22" /><stop
         style="stop-color:#383f4a;stop-opacity:1;"
         offset="1"
         id="stop23" /></linearGradient><linearGradient
       id="linearGradient18"
       inkscape:collect="always"><stop
         style="stop-color:#0b0c10;stop-opacity:1;"
         offset="0"
         id="stop18" /><stop
         style="stop-color:#2a2f36;stop-opacity:1;"
         offset="1"
         id="stop19" /></linearGradient><linearGradient
       id="linearGradient15"
       inkscape:collect="always"><stop
         style="stop-color:#0e0e13;stop-opacity:1;"
         offset="0"
         id="stop15" /><stop
         style="stop-color:#62627a;stop-opacity:1;"
         offset="1"
         id="stop16" /></linearGradient><linearGradient
       id="linearGradient13"
       inkscape:collect="always"><stop
         style="stop-color:#15151f;stop-opacity:1;"
         offset="0"
         id="stop13" /><stop
         style="stop-color:#636381;stop-opacity:1;"
         offset="1"
         id="stop14" /></linearGradient><linearGradient
       id="linearGradient11"
       inkscape:collect="always"><stop
         style="stop-color:#191921;stop-opacity:1;"
         offset="0"
         id="stop11" /><stop
         style="stop-color:#6b6b88;stop-opacity:1;"
         offset="1"
         id="stop12" /></linearGradient><linearGradient
       id="linearGradient5"
       inkscape:collect="always"><stop
         style="stop-color:#676767;stop-opacity:1;"
         offset="0"
         id="stop5" /><stop
         style="stop-color:#222222;stop-opacity:1;"
         offset="1"
         id="stop6" /></linearGradient><linearGradient
       inkscape:collect="always"
       xlink:href="#linearGradient5"
       id="linearGradient6"
       x1="95.692726"
       y1="119.8185"
       x2="97.0924"
       y2="123.87016"
       gradientUnits="userSpaceOnUse"
       gradientTransform="rotate(-4.3970306,-938.33122,130.89273)" /><linearGradient
       inkscape:collect="always"
       xlink:href="#linearGradient11"
       id="linearGradient12"
       x1="76.070969"
       y1="142.36446"
       x2="53.722435"
       y2="132.04974"
       gradientUnits="userSpaceOnUse"
       gradientTransform="rotate(-4.3970306,-938.33122,130.89273)" /><linearGradient
       inkscape:collect="always"
       xlink:href="#linearGradient13"
       id="linearGradient14"
       x1="61.243576"
       y1="160.63008"
       x2="37.283367"
       y2="147.73669"
       gradientUnits="userSpaceOnUse"
       gradientTransform="rotate(-4.3970306,-938.33122,130.89273)" /><linearGradient
       inkscape:collect="always"
       xlink:href="#linearGradient15"
       id="linearGradient16"
       x1="38.572708"
       y1="171.91179"
       x2="19.554966"
       y2="158.69608"
       gradientUnits="userSpaceOnUse"
       gradientTransform="rotate(-4.3970306,-938.33122,130.89273)" /><linearGradient
       inkscape:collect="always"
       xlink:href="#linearGradient18"
       id="linearGradient19"
       x1="75.750488"
       y1="62.482578"
       x2="51.374565"
       y2="32.398376"
       gradientUnits="userSpaceOnUse"
       gradientTransform="rotate(-4.3970306,386.06027,33.766137)" /><filter
       inkscape:collect="always"
       style="color-interpolation-filters:sRGB"
       id="filter21"
       x="-0.052571931"
       y="-0.15304275"
       width="1.1051439"
       height="1.3060855"><feGaussianBlur
         inkscape:collect="always"
         stdDeviation="0.78907467"
         id="feGaussianBlur21" /></filter><filter
       inkscape:collect="always"
       style="color-interpolation-filters:sRGB"
       id="filter22"
       x="-0.13533213"
       y="-0.30449726"
       width="1.2706643"
       height="1.6089945"><feGaussianBlur
         inkscape:collect="always"
         stdDeviation="1.8839528"
         id="feGaussianBlur22" /></filter><linearGradient
       inkscape:collect="always"
       xlink:href="#linearGradient22"
       id="linearGradient23"
       x1="66.595718"
       y1="80.209686"
       x2="72.75235"
       y2="89.054428"
       gradientUnits="userSpaceOnUse"
       gradientTransform="rotate(-4.3970306,386.06027,33.766137)" /><linearGradient
       inkscape:collect="always"
       xlink:href="#linearGradient24"
       id="linearGradient25"
       x1="51.507626"
       y1="76.914581"
       x2="56.103424"
       y2="82.290802"
       gradientUnits="userSpaceOnUse"
       gradientTransform="rotate(-4.3970306,386.06027,33.766137)" /><filter
       inkscape:collect="always"
       style="color-interpolation-filters:sRGB"
       id="filter25"
       x="-0.20348093"
       y="-0.22509816"
       width="1.4069619"
       height="1.4501963"><feGaussianBlur
         inkscape:collect="always"
         stdDeviation="1.244725"
         id="feGaussianBlur25" /></filter><linearGradient
       inkscape:collect="always"
       xlink:href="#linearGradient18-6"
       id="linearGradient19-8"
       x1="50.720333"
       y1="14.606739"
       x2="52.154125"
       y2="43.461769"
       gradientUnits="userSpaceOnUse"
       gradientTransform="rotate(-18.455151,67.213796,-37.211859)" /><linearGradient
       id="linearGradient18-6"
       inkscape:collect="always"><stop
         style="stop-color:#ff0000;stop-opacity:1;"
         offset="0"
         id="stop18-5" /><stop
         style="stop-color:#910000;stop-opacity:1;"
         offset="1"
         id="stop19-7" /></linearGradient><filter
       inkscape:collect="always"
       style="color-interpolation-filters:sRGB"
       id="filter13"
       x="-0.61396779"
       y="-0.12939587"
       width="2.2279356"
       height="1.2587917"><feGaussianBlur
         inkscape:collect="always"
         stdDeviation="1.6239336"
         id="feGaussianBlur13" /></filter><filter
       inkscape:collect="always"
       style="color-interpolation-filters:sRGB"
       id="filter14"
       x="-0.66608"
       y="-0.25082517"
       width="2.33216"
       height="1.5016503"><feGaussianBlur
         inkscape:collect="always"
         stdDeviation="1.2471563"
         id="feGaussianBlur14" /></filter></defs><g
     inkscape:label="Layer 1"
     inkscape:groupmode="layer"
     id="layer1"><path
       id="path10-6"
       style="fill:#000000;fill-opacity:1;stroke:#000000;stroke-width:2.5;stroke-opacity:1;paint-order:markers stroke fill"
       d="m 77.367845,38.70848 c -1.79945,0.172748 -2.94791,0.843816 -5.880923,2.326859 -4.593752,4.070939 -5.898037,8.409445 -8.45557,13.909592 l 0.745232,0.194578 -1.57463,0.349652 -9.273859,5.916727 -4.973964,5.925571 -0.291356,0.241649 -0.253979,0.02675 -0.01059,0.192579 -3.804206,3.155034 -2.612395,1.331786 0.70041,0.285622 4.429003,-2.248388 -17.284189,14.549065 c 0,0 0.205686,0.584872 0.89484,0.751647 l -3.896898,2.872951 1.479567,0.112727 -5.787278,4.178243 1.02057,0.03452 -7.309928,6.444159 1.271724,0.355196 -10.147558,6.322871 0.665932,1.30671 2.4914702,0.0344 3.1400988,1.11594 5.103974,0.17351 1.375458,1.70411 6.089927,-0.2423 6.488317,-2.42177 c 0,0 2.075805,-2.42195 2.750553,-2.47383 0.674758,-0.0519 15.614904,-5.838869 15.614904,-5.838869 l 0.972518,-0.556759 c 2.524188,2.370458 7.370015,7.103468 7.370015,7.103468 l -0.949202,0.23988 -1.086731,0.18358 -1.770253,-0.0308 -0.721937,0.15555 -0.722268,0.58938 -0.15043,0.64543 0.266896,0.31215 0.268915,-0.28649 0.897844,-0.46968 0.768186,0.008 0.186133,1.1197 1.517364,0.95748 0.342149,-1.06677 c 0,0 3.324012,-0.15575 3.45922,-0.1328 0.135211,0.023 2.359773,-0.11459 2.359773,-0.11459 l -0.311228,0.72466 1.354947,-0.60485 1.073972,-0.34951 2.765373,0.38806 c 0,0 -0.449055,-1.06664 -0.617426,-1.08706 -0.168373,-0.0204 -1.107281,-0.51504 -1.107281,-0.51504 l -1.372484,-0.0613 -1.627283,-0.34186 -1.479758,-0.58694 -0.696609,0.0536 -0.157753,-1.18876 -1.755291,-0.69895 -2.043621,-2.27831 -3.605842,-3.465818 4.390008,-0.841337 0.576807,-0.425294 3.677366,1.241521 2.050823,-0.08151 -0.116566,1.456553 2.491162,2.551225 0.06727,0.73339 7.291152,5.44426 0.760211,1.64309 1.265212,0.83668 -1.370092,0.83925 -2.290772,0.14245 -1.219808,-0.23946 -0.571324,-0.0561 -2.023029,1.02266 -0.24715,1.11985 0.474087,0.53056 0.0408,-0.77021 1.094377,-0.0842 0.921007,0.26295 2.602516,0.43376 2.382341,-0.68386 1.609784,-0.32384 c 0,0 2.11267,0.57159 2.349922,0.62006 0.237243,0.0485 3.601861,-0.01 3.601861,-0.01 l 0.525775,0.32651 0.910787,0.13003 0.241896,0.98222 -0.589335,0.57915 1.0796,-0.28308 0.612272,-1.58173 -0.495005,-0.79586 -0.293587,-0.77819 c 0,0 -0.910544,-0.13004 -1.043202,-0.11984 -0.132658,0.0102 -3.604951,-0.0234 -3.604951,-0.0234 l -1.170881,-0.91079 -1.053427,-1.55368 -1.112391,-0.58151 -6.92566,-6.33945 -0.20858,-0.51522 0.289508,-0.67686 c 0,0 0.186949,-1.538103 0.47249,-1.788662 0.285546,-0.250569 -0.372833,-2.867014 -0.372833,-2.867014 l 3.001015,-1.602677 c 6.767627,-3.379724 10.24258,-9.602876 13.92583,-22.480323 l 0.188391,-0.340485 0.03358,-0.452978 c 0.407643,-1.451094 0.817761,-2.959305 1.236914,-4.579871 1.296607,-5.65119 0.263798,-7.885885 -1.10679,-13.402873 0,0 0.302967,-0.02325 0.279667,-0.326262 C 88.106158,53.017 87.89061,51.204591 87.89061,51.204591 l -0.227159,-1.963433 1.95763,-2.28433 1.69166,-1.389004 1.49069,-0.52459 3.347761,-1.144215 1.299531,-0.395351 0.96885,0.110013 -0.621396,-0.875811 -1.463171,-1.254221 -1.56818,-0.692096 -1.607469,-0.245936 -0.524754,0.01029 -0.0061,-0.07883 -1.135713,-0.0086 -0.680788,-0.185547 0.05069,0.180614 -3.647794,-0.02789 -1.241488,-0.28548 -4.13708,-1.281845 c -2.074791,-0.187297 -3.388861,-0.263308 -4.468532,-0.159658 z"
       sodipodi:nodetypes="scccccccccccccccccccccccccccccscccccccccccccccccccccccccccccccccccccccccccccccccccccccscccccccccscccccccscccccccsccccccccccccccccccccss" /><path
       style="fill:url(#linearGradient25);fill-opacity:1;stroke-width:2.5;paint-order:markers stroke fill"
       d="m 49.610789,97.521949 c 0.306133,0.07655 8.854628,8.426551 8.854628,8.426551 l -0.949018,0.23977 -1.086774,0.18367 -1.770462,-0.0307 -0.721965,0.15561 -0.721978,0.58929 -0.150536,0.64542 0.08926,1.16075 0.446478,-1.13522 0.898001,-0.46938 0.767878,0.008 0.186201,1.11994 1.497471,0.81895 0.362285,-0.92859 c 0,0 3.324089,-0.15551 3.459298,-0.13256 0.135209,0.023 2.35977,-0.11475 2.35977,-0.11475 l -0.311258,0.72449 1.354653,-0.60456 1.074023,-0.34948 2.765386,0.38786 c 0,0 -0.448964,-1.06638 -0.617337,-1.08679 -0.168372,-0.0205 -1.107161,-0.51535 -1.107161,-0.51535 l -1.372494,-0.0613 -1.62759,-0.34189 -1.479623,-0.5868 -0.696452,0.0536 -0.158128,-1.18882 -1.75514,-0.69906 -2.043365,-2.27818 -5.367365,-5.158493 z"
       id="path10" /><path
       style="fill:url(#linearGradient23);fill-opacity:1;stroke-width:2.5;paint-order:markers stroke fill"
       d="m 66.48624,100.49447 0.201472,2.18631 7.29089,5.44426 0.760181,1.64294 1.265319,0.83679 -1.369964,0.83927 -2.290897,0.14276 -1.21942,-0.23984 -0.571447,-0.0562 -2.023052,1.02293 -0.24749,1.11992 0.47449,0.53065 0.04084,-0.77043 1.094425,-0.0842 0.920939,0.26279 2.602109,0.43377 2.382749,-0.68363 1.609757,-0.32394 c 0,0 2.112293,0.57151 2.349543,0.61998 0.237249,0.0485 3.602158,-0.0101 3.602158,-0.0101 l 0.525517,0.32656 0.91074,0.13013 0.242326,0.98219 -0.589321,0.57908 1.079124,-0.28314 0.61231,-1.58166 -0.49489,-0.79596 -0.293354,-0.77809 c 0,0 -0.910741,-0.13014 -1.043397,-0.11994 -0.132658,0.0102 -3.604706,-0.0231 -3.604706,-0.0231 l -1.170928,-0.91078 -1.05356,-1.55365 -1.112265,-0.58168 -6.926055,-6.33969 -1.647892,-4.07671 z"
       id="path11" /><path
       style="fill:url(#linearGradient19);fill-opacity:1;stroke-width:2.5;paint-order:markers stroke fill"
       d="m 92.678828,40.582749 -5.413515,-0.04094 -1.241196,-0.285571 -4.13731,-1.282117 c -5.532789,-0.499458 -5.656423,-0.205449 -10.349261,2.16743 -4.593779,4.070957 -5.898201,8.40925 -8.45575,13.909399 l 4.510259,1.177245 15.616832,6.876609 -18.61287,21.548633 -15.291122,14.206383 8.636034,-1.654682 0.57691,-0.425372 3.67696,1.241311 2.051196,-0.0815 -0.116586,1.456806 3.391357,3.473147 2.226005,0.20984 0.775076,-1.81225 c 0,0 0.186519,-1.53839 0.47206,-1.788949 0.285544,-0.25057 -0.372859,-2.867022 -0.372859,-2.867022 l 3.001081,-1.602412 c 7.650207,-3.820461 11.092287,-11.257505 15.384757,-27.85381 1.296618,-5.651191 0.263774,-7.88572 -1.106788,-13.402703 0,0 0.30302,-0.0233 0.27972,-0.326316 -0.0233,-0.303025 -0.238858,-2.115303 -0.238858,-2.115303 l -0.227207,-1.963791 1.958023,-2.284219 3.583845,-2.942665 -0.506895,-2.628103 z"
       id="path6"
       sodipodi:nodetypes="ccccccccccccccccccsccccscccccc" /><path
       style="opacity:0.0645161;fill:#ffffff;stroke-width:2.5;paint-order:markers stroke fill;filter:url(#filter25)"
       d="m 79.301187,17.200146 c 0,0 -2.981526,-0.45289 -3.24571,-0.03774 -0.264186,0.415149 -4.076009,1.924782 -4.113749,2.30219 -0.03774,0.377408 -5.92531,7.661386 -5.92531,7.661386 l 1.207707,3.019266 3.170227,0.113224 0.339669,-3.245712 0.792557,-3.321192 2.151226,-3.094748 c 0,0 1.924783,-1.434151 2.415413,-1.736077 0.49063,-0.301927 2.75508,-1.207707 2.75508,-1.207707 l 1.8493,0.03774 z"
       id="path25"
       transform="rotate(-4.3970306,378.59139,15.447416)" /><ellipse
       style="fill:#4d4d4d;stroke-width:2.5;paint-order:markers stroke fill"
       id="path2"
       cx="75.896004"
       cy="50.201115"
       rx="1.7311618"
       ry="1.528579"
       transform="rotate(-4.3970306)" /><path
       style="fill:url(#linearGradient16);fill-opacity:1;stroke-width:2.5;paint-order:markers stroke fill"
       d="m 31.870425,84.176136 -5.995028,4.420303 1.479258,0.1125 -5.787406,4.178092 1.020775,0.03463 -7.309985,6.444515 1.271635,0.354712 -10.1473935,6.323332 0.6660609,1.30626 2.4913859,0.0347 3.1401517,1.11602 5.103877,0.17316 1.375403,1.70422 6.090062,-0.24204 6.488058,-2.42199 c 0,0 2.076224,-2.42213 2.750978,-2.47401 0.674751,-0.0519 15.614586,-5.838728 15.614586,-5.838728 l 8.668094,-4.965223 8.460514,-6.193615 1.314873,0.917011 3.148884,-1.712738 4.740644,-3.079486 2.543355,-2.231801 1.323605,-1.911754 5.761506,-5.986078 -14.697323,-4.299801 -9.100548,2.283506 z"
       id="path9" /><path
       style="fill:url(#linearGradient6);fill-opacity:1;stroke-width:2.5;paint-order:markers stroke fill"
       d="m 90.862394,40.388729 0.203379,0.723206 -1.022676,1.113012 -1.539645,1.115815 -2.98886,1.005607 -1.35036,0.694904 0.265504,1.531151 2.43793,0.95774 3.971969,-1.672273 2.014232,-0.709012 3.347634,-1.144012 1.299504,-0.395463 0.968962,0.110206 -0.621473,-0.875771 -1.463303,-1.254334 -1.56784,-0.692165 -1.607405,-0.245818 -1.29102,0.02535 z"
       id="path5" /><path
       style="mix-blend-mode:normal;fill:#000000;stroke-width:2.5;paint-order:markers stroke fill;filter:url(#filter21)"
       d="m 31.021434,55.927555 -5.637131,2.612327 1.924873,1.924872 5.49964,1.37491 c 0,0 -5.985072,5.861992 -5.435107,5.999483 0.549963,0.137491 8.177797,-4.411606 8.177797,-4.411606 l 13.756223,4.874198 12.099203,-7.149528 z"
       id="path21"
       sodipodi:nodetypes="ccccscccc"
       transform="rotate(-4.3970306,378.59139,15.447416)" /><path
       style="fill:url(#linearGradient14);fill-opacity:1;stroke-width:2.5;paint-order:markers stroke fill"
       d="M 47.364164,69.409931 28.877276,84.971905 c 0,0 0.294096,0.882369 1.418684,0.795895 1.124586,-0.08647 3.391097,-1.505106 3.391097,-1.505106 l 1.003394,2.750929 4.602115,1.003612 4.610805,-0.354542 -1.09004,2.006918 6.444735,-0.04307 2.361546,2.759629 c 0,0 6.41879,-0.380441 7.180059,-0.778347 0.761267,-0.397905 8.192316,-5.268008 8.192316,-5.268008 l 0.596839,1.877207 c 0,0 6.470763,-2.646907 6.91195,-2.793954 0.441186,-0.147048 5.05212,-4.913415 5.05212,-4.913415 l 3.642129,-7.067474 c 0,0 -3.581211,-5.380815 -4.619281,-5.640363 -1.038068,-0.259548 -15.181831,-1.77382 -15.181831,-1.77382 l -15.934542,1.677758 z"
       id="path8" /><path
       style="mix-blend-mode:normal;fill:#000000;stroke-width:2.5;paint-order:markers stroke fill;filter:url(#filter22)"
       d="m 47.520347,43.140896 -4.124729,3.162292 5.499637,1.237417 5.912111,7.01204 11.54924,3.437274 10.449311,-5.774621 -18.011314,-5.224656 z"
       id="path22"
       transform="rotate(-4.3970306,378.59139,15.447416)" /><path
       style="fill:url(#linearGradient12);fill-opacity:1;stroke-width:2.5;paint-order:markers stroke fill"
       d="m 84.320042,58.649601 -4.930842,-0.865202 -2.067495,-0.406648 -3.434247,-1.998397 -4.69728,-0.770048 -3.823594,0.29401 -3.114252,0.691968 -9.273668,5.916772 -4.974294,5.925547 -4.360031,3.615844 -2.612536,1.332117 0.700693,0.28549 4.463801,-2.266338 -0.259548,1.038074 3.797653,-0.631384 1.401386,0.57098 2.517328,0.372048 0.242168,1.678233 2.448105,0.942996 1.496511,1.808028 2.99306,2.145444 3.295893,0.199069 1.825278,0.199016 1.730117,0.43258 2.681714,-0.432453 1.920444,-0.03455 3.40835,0.190412 1.089996,-0.536306 1.089997,-0.536306 1.851223,0.536391 2.525977,0.484516 3.001837,-2.153923 2.482866,-4.489619 0.389432,-5.23363 -1.556956,-5.536458 z"
       id="path7" /><g
       id="g2"
       transform="translate(-2.1217528,0.70725095)"><g
         id="g1"
         transform="rotate(-3.6383604,72.750315,25.52781)"><path
           style="fill:url(#linearGradient19-8);fill-opacity:1;stroke:#000000;stroke-width:2.5;stroke-dasharray:none;stroke-opacity:1;paint-order:markers stroke fill"
           d="m 62.288911,5.1585886 2.684324,41.5695684 c 9.485936,-5.073873 13.457918,-9.572005 22.918271,-7.711975 L 65.969766,6.6637456 64.062257,4.9482046 Z"
           id="path6-2"
           sodipodi:nodetypes="cccccc" /><path
           style="mix-blend-mode:normal;fill:#ffffff;stroke-width:2.5;paint-order:markers stroke fill;filter:url(#filter13)"
           d="M 85.408393,-1.6588093 79.568274,19.7338 c 0,0 1.840907,9.331495 1.904386,8.696698 0.06348,-0.634796 4.44357,-26.1535752 4.44357,-26.1535752 z"
           id="path13"
           sodipodi:nodetypes="ccscc"
           transform="matrix(0.81930344,-0.33937234,0.28938234,0.89443737,-5.5182572,37.759577)" /></g><path
         style="fill:#ffffff;stroke-width:2.5;paint-order:markers stroke fill;filter:url(#filter14)"
         d="m 92.330714,22.096972 2.296789,8.338338 2.196928,3.594974 -3.295393,-10.884779 z"
         id="path14"
         transform="matrix(0.81930344,-0.33937234,0.28938234,0.89443737,-5.2825069,37.641702)" /></g></g></svg>
