<?xml version="1.0" encoding="UTF-8" standalone="no"?>
<!-- Created with Inkscape (http://www.inkscape.org/) -->

<svg
   width="100mm"
   height="100mm"
   viewBox="0 0 100 100"
   version="1.1"
   id="svg1"
   inkscape:version="1.3.2 (091e20e, 2023-11-25)"
   sodipodi:docname="crow2.svg"
   xml:space="preserve"
   xmlns:inkscape="http://www.inkscape.org/namespaces/inkscape"
   xmlns:sodipodi="http://sodipodi.sourceforge.net/DTD/sodipodi-0.dtd"
   xmlns:xlink="http://www.w3.org/1999/xlink"
   xmlns="http://www.w3.org/2000/svg"
   xmlns:svg="http://www.w3.org/2000/svg"><sodipodi:namedview
     id="namedview1"
     pagecolor="#505050"
     bordercolor="#eeeeee"
     borderopacity="1"
     inkscape:showpageshadow="0"
     inkscape:pageopacity="0"
     inkscape:pagecheckerboard="0"
     inkscape:deskcolor="#505050"
     inkscape:document-units="mm"
     inkscape:zoom="0.99782365"
     inkscape:cx="102.22247"
     inkscape:cy="28.562161"
     inkscape:window-width="1392"
     inkscape:window-height="1212"
     inkscape:window-x="0"
     inkscape:window-y="25"
     inkscape:window-maximized="0"
     inkscape:current-layer="layer1" /><defs
     id="defs1"><linearGradient
       id="linearGradient24"
       inkscape:collect="always"><stop
         style="stop-color:#535d6c;stop-opacity:1;"
         offset="0"
         id="stop24" /><stop
         style="stop-color:#383f4a;stop-opacity:1;"
         offset="1"
         id="stop25" /></linearGradient><linearGradient
       id="linearGradient22"
       inkscape:collect="always"><stop
         style="stop-color:#535d6c;stop-opacity:1;"
         offset="0"
         id="stop22" /><stop
         style="stop-color:#383f4a;stop-opacity:1;"
         offset="1"
         id="stop23" /></linearGradient><linearGradient
       id="linearGradient18"
       inkscape:collect="always"><stop
         style="stop-color:#0b0c10;stop-opacity:1;"
         offset="0"
         id="stop18" /><stop
         style="stop-color:#2a2f36;stop-opacity:1;"
         offset="1"
         id="stop19" /></linearGradient><linearGradient
       id="linearGradient15"
       inkscape:collect="always"><stop
         style="stop-color:#0e0e13;stop-opacity:1;"
         offset="0"
         id="stop15" /><stop
         style="stop-color:#62627a;stop-opacity:1;"
         offset="1"
         id="stop16" /></linearGradient><linearGradient
       id="linearGradient13"
       inkscape:collect="always"><stop
         style="stop-color:#15151f;stop-opacity:1;"
         offset="0"
         id="stop13" /><stop
         style="stop-color:#636381;stop-opacity:1;"
         offset="1"
         id="stop14" /></linearGradient><linearGradient
       id="linearGradient11"
       inkscape:collect="always"><stop
         style="stop-color:#191921;stop-opacity:1;"
         offset="0"
         id="stop11" /><stop
         style="stop-color:#6b6b88;stop-opacity:1;"
         offset="1"
         id="stop12" /></linearGradient><linearGradient
       id="linearGradient5"
       inkscape:collect="always"><stop
         style="stop-color:#676767;stop-opacity:1;"
         offset="0"
         id="stop5" /><stop
         style="stop-color:#222222;stop-opacity:1;"
         offset="1"
         id="stop6" /></linearGradient><linearGradient
       inkscape:collect="always"
       xlink:href="#linearGradient5"
       id="linearGradient6"
       x1="95.692726"
       y1="119.8185"
       x2="97.0924"
       y2="123.87016"
       gradientUnits="userSpaceOnUse"
       gradientTransform="rotate(-4.3970306,-1270.5914,157.76355)" /><linearGradient
       inkscape:collect="always"
       xlink:href="#linearGradient11"
       id="linearGradient12"
       x1="76.070969"
       y1="142.36446"
       x2="53.722435"
       y2="132.04974"
       gradientUnits="userSpaceOnUse"
       gradientTransform="rotate(-4.3970306,-1270.5914,157.76355)" /><linearGradient
       inkscape:collect="always"
       xlink:href="#linearGradient13"
       id="linearGradient14"
       x1="61.243576"
       y1="160.63008"
       x2="37.283367"
       y2="147.73669"
       gradientUnits="userSpaceOnUse"
       gradientTransform="rotate(-4.3970306,-1270.5914,157.76355)" /><linearGradient
       inkscape:collect="always"
       xlink:href="#linearGradient15"
       id="linearGradient16"
       x1="38.572708"
       y1="171.91179"
       x2="19.554966"
       y2="158.69608"
       gradientUnits="userSpaceOnUse"
       gradientTransform="rotate(-4.3970306,-1270.5914,157.76355)" /><linearGradient
       inkscape:collect="always"
       xlink:href="#linearGradient18"
       id="linearGradient19"
       x1="75.750488"
       y1="62.482578"
       x2="51.374565"
       y2="32.398376"
       gradientUnits="userSpaceOnUse"
       gradientTransform="rotate(-4.3970306,53.80007,60.636953)" /><filter
       inkscape:collect="always"
       style="color-interpolation-filters:sRGB"
       id="filter21"
       x="-0.052571931"
       y="-0.15304275"
       width="1.1051439"
       height="1.3060855"><feGaussianBlur
         inkscape:collect="always"
         stdDeviation="0.78907467"
         id="feGaussianBlur21" /></filter><filter
       inkscape:collect="always"
       style="color-interpolation-filters:sRGB"
       id="filter22"
       x="-0.13533213"
       y="-0.30449726"
       width="1.2706643"
       height="1.6089945"><feGaussianBlur
         inkscape:collect="always"
         stdDeviation="1.8839528"
         id="feGaussianBlur22" /></filter><linearGradient
       inkscape:collect="always"
       xlink:href="#linearGradient22"
       id="linearGradient23"
       x1="66.595718"
       y1="80.209686"
       x2="72.75235"
       y2="89.054428"
       gradientUnits="userSpaceOnUse"
       gradientTransform="rotate(-4.3970306,53.80007,60.636953)" /><linearGradient
       inkscape:collect="always"
       xlink:href="#linearGradient24"
       id="linearGradient25"
       x1="51.507626"
       y1="76.914581"
       x2="56.103424"
       y2="82.290802"
       gradientUnits="userSpaceOnUse"
       gradientTransform="rotate(-4.3970306,53.80007,60.636953)" /><filter
       inkscape:collect="always"
       style="color-interpolation-filters:sRGB"
       id="filter25"
       x="-0.20348093"
       y="-0.22509816"
       width="1.4069619"
       height="1.4501963"><feGaussianBlur
         inkscape:collect="always"
         stdDeviation="1.244725"
         id="feGaussianBlur25" /></filter></defs><g
     inkscape:label="Layer 1"
     inkscape:groupmode="layer"
     id="layer1"><path
       id="path10-6"
       style="fill:#000000;fill-opacity:1;stroke:#000000;stroke-width:2.5;stroke-opacity:1;paint-order:markers stroke fill"
       d="m 74.329798,13.314058 c -1.79945,0.172747 -2.94791,0.843816 -5.880923,2.326859 -4.593752,4.070939 -5.898036,8.409444 -8.45557,13.909592 l 0.745232,0.194578 -1.57463,0.349652 -9.273858,5.916726 -4.973965,5.925572 -0.291356,0.241648 -0.253979,0.02675 -0.01059,0.192578 -3.804206,3.155035 -2.612395,1.331785 0.70041,0.285622 4.429003,-2.248387 -17.284189,14.549065 c 0,0 0.205686,0.584872 0.89484,0.751647 l -3.896898,2.872951 1.479567,0.112727 -5.787278,4.178243 1.02057,0.03452 -7.309928,6.44416 1.271724,0.355196 -10.1475579,6.322876 0.6659321,1.306711 2.4914701,0.0344 3.1400985,1.115941 5.1039742,0.173513 1.375458,1.704103 6.089928,-0.242302 6.488316,-2.42177 c 0,0 2.075805,-2.421945 2.750553,-2.473829 0.674759,-0.05189 15.614904,-5.838869 15.614904,-5.838869 l 0.972518,-0.556759 c 2.524188,2.370464 7.370015,7.103468 7.370015,7.103468 l -0.949202,0.239879 -1.086731,0.183587 -1.770253,-0.03077 -0.721937,0.155547 -0.722268,0.589379 -0.15043,0.645433 0.266896,0.312144 0.268915,-0.286488 0.897844,-0.469678 0.768186,0.0078 0.186133,1.119706 1.517364,0.957473 0.342149,-1.066769 c 0,0 3.324012,-0.155752 3.45922,-0.1328 0.135211,0.023 2.359773,-0.114585 2.359773,-0.114585 l -0.311227,0.724654 1.354946,-0.60485 1.073972,-0.349508 2.765373,0.388059 c 0,0 -0.449055,-1.066642 -0.617426,-1.087053 -0.168373,-0.02045 -1.107281,-0.515044 -1.107281,-0.515044 l -1.372483,-0.06135 -1.627284,-0.341857 -1.479758,-0.586938 -0.696609,0.05357 -0.157753,-1.188754 -1.75529,-0.698954 -2.043622,-2.278307 -3.605841,-3.46582 4.390008,-0.841337 0.576806,-0.425294 3.677366,1.24152 2.050824,-0.08151 -0.116566,1.456554 2.491161,2.551228 0.06728,0.733391 7.291152,5.444261 0.760211,1.643092 1.265212,0.836672 -1.370092,0.839252 -2.290772,0.142457 -1.219808,-0.239466 -0.571324,-0.0561 -2.023029,1.02266 -0.24715,1.119855 0.474087,0.530554 0.0408,-0.770205 1.094378,-0.08415 0.921006,0.262952 2.602516,0.433759 2.382341,-0.683861 1.609784,-0.323841 c 0,0 2.11267,0.57159 2.349922,0.620063 0.237244,0.04845 3.601861,-0.01004 3.601861,-0.01004 l 0.525775,0.326512 0.910787,0.130035 0.241897,0.982215 -0.589336,0.579148 1.0796,-0.283074 0.612272,-1.581737 -0.495005,-0.795861 -0.293586,-0.778182 c 0,0 -0.910545,-0.130044 -1.043203,-0.119843 -0.132658,0.0102 -3.604951,-0.02341 -3.604951,-0.02341 l -1.170881,-0.910792 -1.053427,-1.55368 -1.112391,-0.581507 -6.92566,-6.339457 -0.208579,-0.515215 0.289507,-0.676858 c 0,0 0.186949,-1.53811 0.47249,-1.788669 0.285546,-0.25057 -0.372833,-2.867015 -0.372833,-2.867015 l 3.001015,-1.602677 c 6.767627,-3.379723 10.242581,-9.602875 13.925831,-22.480322 l 0.18839,-0.340485 0.03358,-0.452978 c 0.407643,-1.451094 0.817761,-2.959306 1.236914,-4.579871 1.296607,-5.65119 0.263798,-7.885885 -1.10679,-13.402874 0,0 0.302967,-0.02325 0.279667,-0.326261 -0.0233,-0.303026 -0.238848,-2.115435 -0.238848,-2.115435 l -0.227159,-1.963433 1.95763,-2.28433 1.69166,-1.389003 1.49069,-0.52459 3.347761,-1.144215 1.299531,-0.395351 0.96885,0.110012 -0.621396,-0.87581 -1.463171,-1.254222 -1.56818,-0.692095 -1.607468,-0.245937 -0.524755,0.01029 -0.0061,-0.07883 -1.135713,-0.0086 -0.680788,-0.185547 0.05069,0.180613 -3.647794,-0.02789 -1.241488,-0.285481 -4.13708,-1.281845 c -2.074791,-0.187296 -3.388861,-0.263308 -4.468532,-0.159657 z"
       sodipodi:nodetypes="scccccccccccccccccccccccccccccscccccccccccccccccccccccccccccccccccccccccccccccccccccccscccccccccscccccccscccccccsccccccccccccccccccccss" /><path
       style="fill:url(#linearGradient25);fill-opacity:1;stroke-width:2.5;paint-order:markers stroke fill"
       d="m 46.572742,72.127527 c 0.306133,0.07655 8.854628,8.426551 8.854628,8.426551 l -0.949018,0.239774 -1.086774,0.183661 -1.770461,-0.03066 -0.721966,0.155609 -0.721978,0.589287 -0.150536,0.645421 0.08926,1.160753 0.446478,-1.135221 0.898001,-0.469379 0.767878,0.0077 0.186201,1.119941 1.497471,0.818943 0.362285,-0.928588 c 0,0 3.324089,-0.155507 3.459298,-0.132556 0.135209,0.023 2.35977,-0.114755 2.35977,-0.114755 l -0.311258,0.724496 1.354653,-0.604567 1.074023,-0.349471 2.765386,0.387856 c 0,0 -0.448964,-1.066377 -0.617337,-1.086789 -0.168372,-0.02045 -1.107161,-0.515353 -1.107161,-0.515353 l -1.372494,-0.06128 -1.62759,-0.341894 -1.479622,-0.586798 -0.696453,0.05355 -0.158128,-1.188816 -1.75514,-0.699056 -2.043365,-2.278185 -5.367365,-5.158492 z"
       id="path10" /><path
       style="fill:url(#linearGradient23);fill-opacity:1;stroke-width:2.5;paint-order:markers stroke fill"
       d="m 63.448193,75.10005 0.201472,2.186308 7.29089,5.444261 0.760181,1.642934 1.265319,0.836795 -1.369964,0.839271 -2.290897,0.142758 -1.21942,-0.239837 -0.571446,-0.05615 -2.023053,1.022933 -0.24749,1.119921 0.47449,0.530644 0.04084,-0.770429 1.094425,-0.08415 0.920939,0.262787 2.60211,0.43377 2.382748,-0.683631 1.609757,-0.32394 c 0,0 2.112293,0.571509 2.349544,0.619982 0.237249,0.04845 3.602157,-0.0101 3.602157,-0.0101 l 0.525517,0.326562 0.91074,0.130129 0.242327,0.982182 -0.589322,0.579086 1.079124,-0.283147 0.61231,-1.581659 -0.49489,-0.795961 -0.293354,-0.77809 c 0,0 -0.910741,-0.130139 -1.043397,-0.119938 -0.132657,0.0102 -3.604706,-0.02307 -3.604706,-0.02307 L 76.49422,85.539491 75.440661,83.985842 74.328395,83.404155 67.40234,77.064467 65.754448,72.987758 Z"
       id="path11" /><path
       style="fill:url(#linearGradient19);fill-opacity:1;stroke-width:2.5;paint-order:markers stroke fill"
       d="m 89.640781,15.188327 -5.413514,-0.04094 -1.241197,-0.285571 -4.13731,-1.282117 c -5.532789,-0.499458 -5.656423,-0.205449 -10.349261,2.16743 -4.593779,4.070956 -5.898201,8.40925 -8.45575,13.909399 l 4.51026,1.177245 15.616832,6.876608 -18.612871,21.548634 -15.291122,14.206383 8.636034,-1.654682 0.57691,-0.425373 3.676961,1.241311 2.051195,-0.0815 -0.116586,1.456806 3.391357,3.473146 2.226005,0.209845 0.775076,-1.812257 c 0,0 0.186519,-1.538387 0.47206,-1.788947 0.285544,-0.250569 -0.372859,-2.867022 -0.372859,-2.867022 l 3.001081,-1.602411 c 7.650207,-3.820461 11.092287,-11.257505 15.384757,-27.85381 1.296618,-5.651191 0.263774,-7.885721 -1.106788,-13.402703 0,0 0.30302,-0.0233 0.27972,-0.326316 -0.0233,-0.303026 -0.238858,-2.115304 -0.238858,-2.115304 l -0.227207,-1.96379 1.958023,-2.28422 3.583845,-2.942665 -0.506895,-2.628103 z"
       id="path6"
       sodipodi:nodetypes="ccccccccccccccccccsccccscccccc" /><path
       style="opacity:0.0645161;fill:#ffffff;stroke-width:2.5;paint-order:markers stroke fill;filter:url(#filter25)"
       d="m 79.301187,17.200146 c 0,0 -2.981526,-0.45289 -3.24571,-0.03774 -0.264186,0.415149 -4.076009,1.924782 -4.113749,2.30219 -0.03774,0.377408 -5.92531,7.661386 -5.92531,7.661386 l 1.207707,3.019266 3.170227,0.113224 0.339669,-3.245712 0.792557,-3.321192 2.151226,-3.094748 c 0,0 1.924783,-1.434151 2.415413,-1.736077 0.49063,-0.301927 2.75508,-1.207707 2.75508,-1.207707 l 1.8493,0.03774 z"
       id="path25"
       transform="rotate(-4.3970306,46.331192,42.318232)" /><ellipse
       style="fill:#4d4d4d;stroke-width:2.5;paint-order:markers stroke fill"
       id="path2"
       cx="74.81382"
       cy="24.648516"
       rx="1.7311618"
       ry="1.528579"
       transform="rotate(-4.3970306)" /><path
       style="fill:url(#linearGradient16);fill-opacity:1;stroke-width:2.5;paint-order:markers stroke fill"
       d="m 28.832378,58.781713 -5.995028,4.420303 1.479258,0.112501 -5.787406,4.178092 1.020776,0.03463 -7.309986,6.444515 1.271635,0.354711 -10.1473934,6.323335 0.6660609,1.30626 2.4913859,0.03468 3.1401513,1.116018 5.1038773,0.173169 1.375403,1.704217 6.090062,-0.242041 6.488058,-2.421991 c 0,0 2.076224,-2.422128 2.750978,-2.474012 0.674751,-0.05188 15.614586,-5.838724 15.614586,-5.838724 l 8.668094,-4.965224 8.460514,-6.193615 1.314873,0.917012 3.148884,-1.712738 4.740644,-3.079486 2.543355,-2.231802 1.323605,-1.911754 5.761506,-5.986078 -14.697323,-4.2998 -9.100548,2.283506 z"
       id="path9" /><path
       style="fill:url(#linearGradient6);fill-opacity:1;stroke-width:2.5;paint-order:markers stroke fill"
       d="m 87.824348,14.994307 0.203379,0.723206 -1.022677,1.113012 -1.539645,1.115814 -2.98886,1.005608 -1.35036,0.694904 0.265504,1.531151 2.43793,0.957739 3.971969,-1.672272 2.014232,-0.709013 3.347634,-1.144011 1.299504,-0.395464 0.968962,0.110207 -0.621473,-0.875771 -1.463303,-1.254334 -1.56784,-0.692165 -1.607405,-0.245818 -1.29102,0.02535 z"
       id="path5" /><path
       style="mix-blend-mode:normal;fill:#000000;stroke-width:2.5;paint-order:markers stroke fill;filter:url(#filter21)"
       d="m 31.021434,55.927555 -5.637131,2.612327 1.924873,1.924872 5.49964,1.37491 c 0,0 -5.985072,5.861992 -5.435107,5.999483 0.549963,0.137491 8.177797,-4.411606 8.177797,-4.411606 l 13.756223,4.874198 12.099203,-7.149528 z"
       id="path21"
       sodipodi:nodetypes="ccccscccc"
       transform="rotate(-4.3970306,46.331192,42.318232)" /><path
       style="fill:url(#linearGradient14);fill-opacity:1;stroke-width:2.5;paint-order:markers stroke fill"
       d="M 44.326117,44.015508 25.839229,59.577482 c 0,0 0.294096,0.88237 1.418684,0.795896 1.124586,-0.08647 3.391097,-1.505106 3.391097,-1.505106 l 1.003395,2.750929 4.602114,1.003612 4.610805,-0.354542 -1.09004,2.006917 6.444735,-0.04307 2.361546,2.759629 c 0,0 6.41879,-0.380442 7.180059,-0.778347 0.761267,-0.397906 8.192316,-5.268009 8.192316,-5.268009 l 0.596839,1.877207 c 0,0 6.470763,-2.646906 6.91195,-2.793954 0.441186,-0.147047 5.05212,-4.913414 5.05212,-4.913414 l 3.642129,-7.067474 c 0,0 -3.581211,-5.380815 -4.619281,-5.640363 -1.038067,-0.259548 -15.181831,-1.77382 -15.181831,-1.77382 l -15.934542,1.677757 z"
       id="path8" /><path
       style="mix-blend-mode:normal;fill:#000000;stroke-width:2.5;paint-order:markers stroke fill;filter:url(#filter22)"
       d="m 47.520347,43.140896 -4.124729,3.162292 5.499637,1.237417 5.912111,7.01204 11.54924,3.437274 10.449311,-5.774621 -18.011314,-5.224656 z"
       id="path22"
       transform="rotate(-4.3970306,46.331192,42.318232)" /><path
       style="fill:url(#linearGradient12);fill-opacity:1;stroke-width:2.5;paint-order:markers stroke fill"
       d="m 81.281995,33.255178 -4.930842,-0.865202 -2.067495,-0.406647 -3.434247,-1.998397 -4.69728,-0.770049 -3.823594,0.29401 -3.114252,0.691969 -9.273668,5.916772 -4.974294,5.925546 -4.360031,3.615845 -2.612536,1.332117 0.700693,0.28549 4.463801,-2.266338 -0.259548,1.038074 3.797653,-0.631385 1.401386,0.57098 2.517328,0.372049 0.242168,1.678233 2.448105,0.942995 1.496511,1.808028 2.99306,2.145445 3.295893,0.199069 1.825279,0.199016 1.730116,0.43258 2.681714,-0.432453 1.920444,-0.03455 3.40835,0.190411 1.089996,-0.536305 1.089997,-0.536306 1.851224,0.53639 2.525976,0.484516 3.001837,-2.153922 2.482866,-4.489619 0.389433,-5.233631 -1.556956,-5.536457 z"
       id="path7" /></g></svg>
