<?xml version="1.0" encoding="UTF-8" standalone="no"?>
<!-- Created with Inkscape (http://www.inkscape.org/) -->

<svg
   width="100mm"
   height="121mm"
   viewBox="0 0 100 121"
   version="1.1"
   id="svg1"
   inkscape:version="1.3.2 (091e20e, 2023-11-25)"
   sodipodi:docname="crowhat.svg"
   xml:space="preserve"
   xmlns:inkscape="http://www.inkscape.org/namespaces/inkscape"
   xmlns:sodipodi="http://sodipodi.sourceforge.net/DTD/sodipodi-0.dtd"
   xmlns:xlink="http://www.w3.org/1999/xlink"
   xmlns="http://www.w3.org/2000/svg"
   xmlns:svg="http://www.w3.org/2000/svg"><sodipodi:namedview
     id="namedview1"
     pagecolor="#505050"
     bordercolor="#eeeeee"
     borderopacity="1"
     inkscape:showpageshadow="0"
     inkscape:pageopacity="0"
     inkscape:pagecheckerboard="0"
     inkscape:deskcolor="#505050"
     inkscape:document-units="mm"
     inkscape:zoom="0.94676522"
     inkscape:cx="233.4264"
     inkscape:cy="-60.733114"
     inkscape:window-width="1392"
     inkscape:window-height="1212"
     inkscape:window-x="1583"
     inkscape:window-y="141"
     inkscape:window-maximized="0"
     inkscape:current-layer="layer1" /><defs
     id="defs1"><linearGradient
       id="linearGradient24"
       inkscape:collect="always"><stop
         style="stop-color:#535d6c;stop-opacity:1;"
         offset="0"
         id="stop24" /><stop
         style="stop-color:#383f4a;stop-opacity:1;"
         offset="1"
         id="stop25" /></linearGradient><linearGradient
       id="linearGradient22"
       inkscape:collect="always"><stop
         style="stop-color:#535d6c;stop-opacity:1;"
         offset="0"
         id="stop22" /><stop
         style="stop-color:#383f4a;stop-opacity:1;"
         offset="1"
         id="stop23" /></linearGradient><linearGradient
       id="linearGradient20"
       inkscape:collect="always"><stop
         style="stop-color:#241f1c;stop-opacity:1;"
         offset="0"
         id="stop20" /><stop
         style="stop-color:#000000;stop-opacity:1;"
         offset="1"
         id="stop21" /></linearGradient><linearGradient
       id="linearGradient18"
       inkscape:collect="always"><stop
         style="stop-color:#0b0c10;stop-opacity:1;"
         offset="0"
         id="stop18" /><stop
         style="stop-color:#2a2f36;stop-opacity:1;"
         offset="1"
         id="stop19" /></linearGradient><linearGradient
       id="linearGradient15"
       inkscape:collect="always"><stop
         style="stop-color:#0e0e13;stop-opacity:1;"
         offset="0"
         id="stop15" /><stop
         style="stop-color:#62627a;stop-opacity:1;"
         offset="1"
         id="stop16" /></linearGradient><linearGradient
       id="linearGradient13"
       inkscape:collect="always"><stop
         style="stop-color:#15151f;stop-opacity:1;"
         offset="0"
         id="stop13" /><stop
         style="stop-color:#636381;stop-opacity:1;"
         offset="1"
         id="stop14" /></linearGradient><linearGradient
       id="linearGradient11"
       inkscape:collect="always"><stop
         style="stop-color:#191921;stop-opacity:1;"
         offset="0"
         id="stop11" /><stop
         style="stop-color:#6b6b88;stop-opacity:1;"
         offset="1"
         id="stop12" /></linearGradient><linearGradient
       id="linearGradient5"
       inkscape:collect="always"><stop
         style="stop-color:#676767;stop-opacity:1;"
         offset="0"
         id="stop5" /><stop
         style="stop-color:#222222;stop-opacity:1;"
         offset="1"
         id="stop6" /></linearGradient><linearGradient
       inkscape:collect="always"
       xlink:href="#linearGradient5"
       id="linearGradient6"
       x1="95.692726"
       y1="119.8185"
       x2="97.0924"
       y2="123.87016"
       gradientUnits="userSpaceOnUse"
       gradientTransform="translate(-4.9748242,-101.30476)" /><linearGradient
       inkscape:collect="always"
       xlink:href="#linearGradient11"
       id="linearGradient12"
       x1="76.070969"
       y1="142.36446"
       x2="53.722435"
       y2="132.04974"
       gradientUnits="userSpaceOnUse"
       gradientTransform="translate(-4.9748242,-101.30476)" /><linearGradient
       inkscape:collect="always"
       xlink:href="#linearGradient13"
       id="linearGradient14"
       x1="61.243576"
       y1="160.63008"
       x2="37.283367"
       y2="147.73669"
       gradientUnits="userSpaceOnUse"
       gradientTransform="translate(-4.9748242,-101.30476)" /><linearGradient
       inkscape:collect="always"
       xlink:href="#linearGradient15"
       id="linearGradient16"
       x1="38.572708"
       y1="171.91179"
       x2="19.554966"
       y2="158.69608"
       gradientUnits="userSpaceOnUse"
       gradientTransform="translate(-4.9748242,-101.30476)" /><linearGradient
       inkscape:collect="always"
       xlink:href="#linearGradient18"
       id="linearGradient19"
       x1="75.750488"
       y1="62.482578"
       x2="51.374565"
       y2="32.398376"
       gradientUnits="userSpaceOnUse"
       gradientTransform="translate(-1.4264308,0.51870211)" /><radialGradient
       inkscape:collect="always"
       xlink:href="#linearGradient20"
       id="radialGradient21"
       cx="79.62104"
       cy="20.702278"
       fx="79.62104"
       fy="20.702278"
       r="1.7311618"
       gradientTransform="matrix(1,0,0,0.88297868,-1.4264308,2.9413099)"
       gradientUnits="userSpaceOnUse" /><filter
       inkscape:collect="always"
       style="color-interpolation-filters:sRGB"
       id="filter21"
       x="-0.052571931"
       y="-0.15304275"
       width="1.1051439"
       height="1.3060855"><feGaussianBlur
         inkscape:collect="always"
         stdDeviation="0.78907467"
         id="feGaussianBlur21" /></filter><filter
       inkscape:collect="always"
       style="color-interpolation-filters:sRGB"
       id="filter22"
       x="-0.13533213"
       y="-0.30449726"
       width="1.2706643"
       height="1.6089945"><feGaussianBlur
         inkscape:collect="always"
         stdDeviation="1.8839528"
         id="feGaussianBlur22" /></filter><linearGradient
       inkscape:collect="always"
       xlink:href="#linearGradient22"
       id="linearGradient23"
       x1="66.595718"
       y1="80.209686"
       x2="72.75235"
       y2="89.054428"
       gradientUnits="userSpaceOnUse"
       gradientTransform="translate(-1.4264308,0.51870211)" /><linearGradient
       inkscape:collect="always"
       xlink:href="#linearGradient24"
       id="linearGradient25"
       x1="51.507626"
       y1="76.914581"
       x2="56.103424"
       y2="82.290802"
       gradientUnits="userSpaceOnUse"
       gradientTransform="translate(-1.4264308,0.51870211)" /><filter
       inkscape:collect="always"
       style="color-interpolation-filters:sRGB"
       id="filter25"
       x="-0.20348093"
       y="-0.22509816"
       width="1.4069619"
       height="1.4501963"><feGaussianBlur
         inkscape:collect="always"
         stdDeviation="1.244725"
         id="feGaussianBlur25" /></filter><linearGradient
       inkscape:collect="always"
       xlink:href="#linearGradient18-6"
       id="linearGradient19-8"
       x1="50.720333"
       y1="14.606739"
       x2="52.154125"
       y2="43.461769"
       gradientUnits="userSpaceOnUse"
       gradientTransform="rotate(-18.455151,67.213796,-37.211859)" /><linearGradient
       id="linearGradient18-6"
       inkscape:collect="always"><stop
         style="stop-color:#ff0000;stop-opacity:1;"
         offset="0"
         id="stop18-5" /><stop
         style="stop-color:#910000;stop-opacity:1;"
         offset="1"
         id="stop19-7" /></linearGradient><filter
       inkscape:collect="always"
       style="color-interpolation-filters:sRGB"
       id="filter13"
       x="-0.61396779"
       y="-0.12939587"
       width="2.2279356"
       height="1.2587917"><feGaussianBlur
         inkscape:collect="always"
         stdDeviation="1.6239336"
         id="feGaussianBlur13" /></filter><filter
       inkscape:collect="always"
       style="color-interpolation-filters:sRGB"
       id="filter14"
       x="-0.66608"
       y="-0.25082517"
       width="2.33216"
       height="1.5016503"><feGaussianBlur
         inkscape:collect="always"
         stdDeviation="1.2471563"
         id="feGaussianBlur14" /></filter></defs><g
     inkscape:label="Layer 1"
     inkscape:groupmode="layer"
     id="layer1"><g
       id="g32"
       transform="rotate(-4.3970306,378.59139,15.447416)"><path
         id="path10-6"
         style="fill:#000000;fill-opacity:1;stroke:#000000;stroke-width:2.5;stroke-opacity:1;paint-order:markers stroke fill"
         d="m 76.471064,15.546004 c -1.807398,0.03428 -3.003927,0.615324 -6.042008,1.869136 -4.89234,3.706766 -6.525407,7.932506 -9.497095,13.220386 l 0.728121,0.25114 -1.596802,0.2279 -9.700183,5.18831 -5.413623,5.52679 -0.309025,0.2186 -0.255282,0.0072 -0.02532,0.1912 -4.034898,2.85409 -2.70681,1.12758 0.67645,0.33848 4.588346,-1.90221 -18.348756,13.18111 c 0,0 0.16024,0.59892 0.83458,0.81804 l -4.10569,2.56573 1.46657,0.22583 -6.09058,3.72225 1.01492,0.11266 -7.7824698,5.86476 1.2407498,0.45165 -10.60244951,5.52628 0.56379001,1.35392 2.4815,0.22531 3.0453,1.3534 5.0756495,0.56431 1.24076,1.80454 6.09058,0.22531 6.65489,-1.9172 c 0,0 2.25538,-2.25567 2.93212,-2.25567 0.67675,0 16.016595,-4.62453 16.016595,-4.62453 l 1.012341,-0.48056 c 2.335022,2.55701 6.803719,7.6476 6.803719,7.6476 l -0.964799,0.1664 -1.097608,0.09973 -1.762683,-0.1664 -0.731738,0.09974 -0.765328,0.53227 -0.199471,0.632 0.242179,0.331688 0.290088,-0.265028 0.93121,-0.39946 0.765328,0.06667 0.09974,1.13068 1.439491,1.070987 0.422928,-1.037397 c 0,0 3.32617,0.09955 3.45922,0.1328 0.13305,0.0333 2.361613,0.06667 2.361613,0.06667 l -0.365869,0.69866 1.397331,-0.49919 1.097607,-0.26614 2.727482,0.59893 c 0,0 -0.365957,-1.09793 -0.532267,-1.13119 -0.16631,-0.0333 -1.064535,-0.59842 -1.064535,-0.59842 l -1.363741,-0.16639 -1.596285,-0.46561 -1.430403,-0.69866 h -0.698666 l -0.06615,-1.19735 -1.696537,-0.83147 -1.862935,-2.42828 -3.329513,-3.73207 4.44159,-0.50229 0.607715,-0.37982 3.571358,1.5198 2.051037,0.07596 -0.227893,1.44333 2.288233,2.73471 0.01085,0.73639 6.852295,5.98723 0.632002,1.69654 1.197343,0.93121 -1.430403,0.73174 -2.294951,-0.03359 -1.197859,-0.33228 -0.565341,-0.09974 -2.095479,0.86455 -0.332279,1.09761 0.432015,0.56534 0.09973,-0.76481 h 1.097608 l 0.898136,0.33279 2.561601,0.63201 2.427759,-0.4992 1.629874,-0.19947 c 0,0 2.062629,0.73188 2.295467,0.7984 0.23283,0.0665 3.592029,0.26614 3.592029,0.26614 l 0.499194,0.36586 0.898137,0.19948 0.165881,0.99787 -0.632003,0.53226 1.098125,-0.19947 0.731738,-1.53014 -0.432532,-0.83147 -0.233061,-0.7984 c 0,0 -0.897894,-0.19947 -1.030944,-0.19947 -0.13305,0 -3.592546,-0.29972 -3.592546,-0.29972 l -1.097607,-0.99788 -0.93121,-1.62987 -1.064534,-0.66508 -6.419247,-6.85177 -0.168465,-0.52969 0.340548,-0.65267 c 0,0 0.304322,-1.51925 0.608232,-1.74718 0.303916,-0.22794 -0.151929,-2.88716 -0.151929,-2.88716 l 3.115055,-1.36788 c 7.006823,-2.85092 10.948661,-8.78934 15.60835,-21.3465 l 0.21394,-0.32504 0.06821,-0.44907 c 0.517695,-1.41557 1.042236,-2.8879 1.5844,-4.47156 1.726052,-5.53515 0.867611,-7.84245 -0.07597,-13.44828 0,0 0.303858,5e-5 0.303858,-0.30386 0,-0.30392 -0.07596,-2.12752 -0.07596,-2.12752 l -0.07596,-1.97507 2.127002,-2.12752 1.793172,-1.25522 1.526522,-0.408759 3.425631,-0.884183 1.326017,-0.294556 0.957564,0.183968 -0.552421,-0.920874 -1.362707,-1.362707 -1.510503,-0.810287 -1.583882,-0.368453 -0.523999,-0.02997 v -0.07906 l -1.131714,-0.0956 -0.664559,-0.237195 0.03669,0.183968 -3.63492,-0.307475 -1.215947,-0.379822 -4.026627,-1.595251 c -2.054325,-0.345814 -3.3587,-0.522348 -4.44314,-0.501778 z"
         sodipodi:nodetypes="scccccccccccccccccccccccccccccscccccccccccccccccccccccccccccccccccccccccccccccccccccccscccccccccscccccccscccccccsccccccccccccccccccccss" /><path
         style="fill:url(#linearGradient25);fill-opacity:1;stroke-width:2.5;paint-order:markers stroke fill"
         d="m 44.286631,72.058309 c 0.299363,0.0998 8.182525,9.08061 8.182525,9.08061 l -0.964607,0.16631 -1.097656,0.0998 -1.7629,-0.16631 -0.731771,0.0998 -0.765032,0.5322 -0.199575,0.63198 v 1.16418 l 0.532198,-1.09765 0.931344,-0.39915 0.765032,0.0665 0.09979,1.13092 1.430277,0.93134 0.432411,-0.89808 c 0,0 3.326228,0.0998 3.459279,0.13305 0.133048,0.0333 2.361623,0.0665 2.361623,0.0665 l -0.365887,0.6985 1.397016,-0.49893 1.097655,-0.2661 2.727511,0.59873 c 0,0 -0.365887,-1.09766 -0.532199,-1.13092 -0.166309,-0.0333 -1.064392,-0.59872 -1.064392,-0.59872 l -1.363756,-0.16632 -1.596588,-0.46567 -1.430279,-0.69851 h -0.698508 l -0.06652,-1.19744 -1.696379,-0.83156 -1.862688,-2.42814 -4.95608,-5.55481 z"
         id="path10" /><path
         style="fill:url(#linearGradient23);fill-opacity:1;stroke-width:2.5;paint-order:markers stroke fill"
         d="m 60.884518,76.315879 0.03326,2.19532 6.852034,5.98721 0.631984,1.69638 1.19744,0.93134 -1.430276,0.73177 -2.295099,-0.0333 -1.197444,-0.33262 -0.565459,-0.0998 -2.095524,0.86482 -0.332623,1.09765 0.432411,0.56546 0.09979,-0.76503 h 1.097656 l 0.898081,0.33262 2.561195,0.63199 2.428148,-0.49894 1.629854,-0.19957 c 0,0 2.06226,0.73177 2.295096,0.79829 0.232836,0.0665 3.59233,0.2661 3.59233,0.2661 l 0.498933,0.36589 0.898083,0.19957 0.166312,0.99787 -0.631984,0.5322 1.097656,-0.19958 0.731769,-1.53006 -0.432409,-0.83156 -0.232836,-0.79829 c 0,0 -0.898083,-0.19958 -1.031131,-0.19958 -0.133049,0 -3.592328,-0.29936 -3.592328,-0.29936 l -1.097655,-0.99787 -0.931344,-1.62985 -1.064395,-0.66525 -6.419623,-6.85203 -1.330491,-4.19105 z"
         id="path11" /><path
         style="fill:url(#linearGradient19);fill-opacity:1;stroke-width:2.5;paint-order:markers stroke fill"
         d="m 91.593287,18.588609 -5.394442,-0.45586 -1.215649,-0.37989 -4.026837,-1.59554 c -5.478212,-0.922172 -5.624023,-0.638507 -10.484971,1.3676 -4.892368,3.706782 -6.525556,7.9323 -9.497259,13.22018 l 4.406728,1.51957 15.043656,8.05367 -20.210164,20.05821 -16.335282,12.99224 8.737476,-0.98771 0.607824,-0.37989 3.57097,1.51956 2.051407,0.076 -0.227933,1.44358 3.115099,3.72293 2.203365,0.37989 0.911735,-1.7475 c 0,0 0.303914,-1.51956 0.607825,-1.74749 0.303914,-0.22794 -0.151955,-2.88717 -0.151955,-2.88717 l 3.115101,-1.36761 c 7.920595,-3.222695 11.922722,-10.373955 17.474953,-26.59232 1.726064,-5.53515 0.867575,-7.842288 -0.07598,-13.44811 0,0 0.303914,0 0.303914,-0.30391 0,-0.30392 -0.07598,-2.12739 -0.07598,-2.12739 l -0.07598,-1.97543 2.127385,-2.12738 3.798903,-2.65924 -0.303913,-2.65923 z"
         id="path6"
         sodipodi:nodetypes="ccccccccccccccccccsccccscccccc" /><path
         style="opacity:0.0645161;fill:#ffffff;stroke-width:2.5;paint-order:markers stroke fill;filter:url(#filter25)"
         d="m 79.301187,17.200146 c 0,0 -2.981526,-0.45289 -3.24571,-0.03774 -0.264186,0.415149 -4.076009,1.924782 -4.113749,2.30219 -0.03774,0.377408 -5.92531,7.661386 -5.92531,7.661386 l 1.207707,3.019266 3.170227,0.113224 0.339669,-3.245712 0.792557,-3.321192 2.151226,-3.094748 c 0,0 1.924783,-1.434151 2.415413,-1.736077 0.49063,-0.301927 2.75508,-1.207707 2.75508,-1.207707 l 1.8493,0.03774 z"
         id="path25" /><ellipse
         style="fill:url(#radialGradient21);stroke-width:2.5;paint-order:markers stroke fill"
         id="path2"
         cx="78.194611"
         cy="21.22098"
         rx="1.7311618"
         ry="1.528579" /><path
         style="fill:url(#linearGradient16);fill-opacity:1;stroke-width:2.5;paint-order:markers stroke fill"
         d="m 27.62167,57.391669 -6.316276,3.94767 1.466279,0.22558 -6.090695,3.72209 1.015116,0.11279 -7.7825538,5.86511 1.2406968,0.45116 -10.60232001,5.52675 0.56395301,1.35348 2.481394,0.22559 3.0453468,1.35348 5.0755792,0.56396 1.240697,1.80465 6.090694,0.22558 6.654649,-1.91744 c 0,0 2.255811,-2.25582 2.932557,-2.25582 0.676743,0 16.016268,-4.62441 16.016268,-4.62441 l 9.023252,-4.28605 8.91046,-5.52674 1.240698,1.01512 3.270927,-1.46628 4.962787,-2.70697 2.706976,-2.03024 1.466278,-1.80465 6.203485,-5.52674 -14.32441,-5.41395 -9.248833,1.57907 z"
         id="path9" /><ellipse
         style="fill:#f9f9f9;stroke-width:2.5;paint-order:markers stroke fill"
         id="path3"
         cx="77.747307"
         cy="20.191429"
         rx="0.57091504"
         ry="0.53408188" /><ellipse
         style="fill:#f9f9f9;stroke-width:2.5;paint-order:markers stroke fill"
         id="path4"
         cx="79.507462"
         cy="20.739868"
         rx="0.31308243"
         ry="0.29466584" /><path
         style="fill:url(#linearGradient6);fill-opacity:1;stroke-width:2.5;paint-order:markers stroke fill"
         d="m 89.797075,18.255899 0.147334,0.73667 -1.104998,1.03133 -1.62066,0.99449 -3.05716,0.7735 -1.399662,0.58933 0.147333,1.547 2.357327,1.14183 4.088487,-1.36283 2.062662,-0.5525 3.425489,-0.88399 1.325999,-0.29467 0.95766,0.18417 -0.5525,-0.92084 -1.36283,-1.36283 -1.510159,-0.81033 -1.583828,-0.36833 -1.289164,-0.0737 z"
         id="path5" /><path
         style="mix-blend-mode:normal;fill:#000000;stroke-width:2.5;paint-order:markers stroke fill;filter:url(#filter21)"
         d="m 31.021434,55.927555 -5.637131,2.612327 1.924873,1.924872 5.49964,1.37491 c 0,0 -5.985072,5.861992 -5.435107,5.999483 0.549963,0.137491 8.177797,-4.411606 8.177797,-4.411606 l 13.756223,4.874198 12.099203,-7.149528 z"
         id="path21"
         sodipodi:nodetypes="ccccscccc" /><path
         style="fill:url(#linearGradient14);fill-opacity:1;stroke-width:2.5;paint-order:markers stroke fill"
         d="m 44.201893,43.856789 -19.625572,14.09883 c 0,0 0.225582,0.90232 1.35349,0.90232 1.127905,0 3.496508,-1.24069 3.496508,-1.24069 l 0.789535,2.81976 4.511625,1.35349 h 4.624416 l -1.240697,1.91744 6.429068,0.45116 2.143022,2.93256 c 0,0 6.429065,0.11279 7.2186,-0.22558 0.789533,-0.33837 8.572088,-4.62442 8.572088,-4.62442 l 0.451162,1.91744 c 0,0 6.654649,-2.14302 7.105811,-2.25581 0.451162,-0.11279 5.413949,-4.51162 5.413949,-4.51162 l 4.173254,-6.76744 c 0,0 -3.158138,-5.63954 -4.173254,-5.97791 -1.015113,-0.33837 -15.001152,-2.93255 -15.001152,-2.93255 l -16.016272,0.45116 z"
         id="path8" /><path
         style="mix-blend-mode:normal;fill:#000000;stroke-width:2.5;paint-order:markers stroke fill;filter:url(#filter22)"
         d="m 47.520347,43.140896 -4.124729,3.162292 5.499637,1.237417 5.912111,7.01204 11.54924,3.437274 10.449311,-5.774621 -18.011314,-5.224656 z"
         id="path22" /><path
         style="fill:url(#linearGradient12);fill-opacity:1;stroke-width:2.5;paint-order:markers stroke fill"
         d="m 81.873966,35.961439 -4.849997,-1.24069 -2.030233,-0.56396 -3.270927,-2.25581 -4.624417,-1.12791 h -3.834881 l -3.158138,0.45117 -9.699996,5.18837 -5.413949,5.52674 -4.624416,3.27093 -2.706976,1.1279 0.676743,0.33837 4.624417,-1.91744 -0.338371,1.01512 3.834882,-0.33837 1.353486,0.67674 2.481395,0.56395 0.112789,1.69186 2.368603,1.12791 1.35349,1.91744 2.819765,2.3686 3.27093,0.45117 1.804648,0.33837 1.69186,0.56395 2.706976,-0.22558 1.91744,0.11279 3.38372,0.45116 1.127905,-0.45116 1.127906,-0.45116 1.804651,0.67674 2.481395,0.67675 3.158138,-1.91744 2.819765,-4.28605 0.789535,-5.18837 -1.127908,-5.63953 z"
         id="path7" /></g><g
       id="g2"
       transform="translate(-2.1217528,0.70725095)"><g
         id="g1"
         transform="rotate(-3.6383604,72.750315,25.52781)"><path
           style="fill:url(#linearGradient19-8);fill-opacity:1;stroke:#000000;stroke-width:2.5;stroke-dasharray:none;stroke-opacity:1;paint-order:markers stroke fill"
           d="m 62.288911,5.1585886 2.684324,41.5695684 c 9.485936,-5.073873 13.457918,-9.572005 22.918271,-7.711975 L 65.969766,6.6637456 64.062257,4.9482046 Z"
           id="path6-2"
           sodipodi:nodetypes="cccccc" /><path
           style="mix-blend-mode:normal;fill:#ffffff;stroke-width:2.5;paint-order:markers stroke fill;filter:url(#filter13)"
           d="M 85.408393,-1.6588093 79.568274,19.7338 c 0,0 1.840907,9.331495 1.904386,8.696698 0.06348,-0.634796 4.44357,-26.1535752 4.44357,-26.1535752 z"
           id="path13"
           sodipodi:nodetypes="ccscc"
           transform="matrix(0.81930344,-0.33937234,0.28938234,0.89443737,-5.5182572,37.759577)" /></g><path
         style="fill:#ffffff;stroke-width:2.5;paint-order:markers stroke fill;filter:url(#filter14)"
         d="m 92.330714,22.096972 2.296789,8.338338 2.196928,3.594974 -3.295393,-10.884779 z"
         id="path14"
         transform="matrix(0.81930344,-0.33937234,0.28938234,0.89443737,-5.2825069,37.641702)" /></g></g></svg>
