<?xml version="1.0" encoding="UTF-8" standalone="no"?>
<!-- Created with Inkscape (http://www.inkscape.org/) -->

<svg
   width="112mm"
   height="100mm"
   viewBox="0 0 112 100"
   version="1.1"
   id="svg1"
   inkscape:version="1.3.2 (091e20e, 2023-11-25)"
   sodipodi:docname="crow_closed.svg"
   xml:space="preserve"
   xmlns:inkscape="http://www.inkscape.org/namespaces/inkscape"
   xmlns:sodipodi="http://sodipodi.sourceforge.net/DTD/sodipodi-0.dtd"
   xmlns:xlink="http://www.w3.org/1999/xlink"
   xmlns="http://www.w3.org/2000/svg"
   xmlns:svg="http://www.w3.org/2000/svg"><sodipodi:namedview
     id="namedview1"
     pagecolor="#505050"
     bordercolor="#eeeeee"
     borderopacity="1"
     inkscape:showpageshadow="0"
     inkscape:pageopacity="0"
     inkscape:pagecheckerboard="0"
     inkscape:deskcolor="#505050"
     inkscape:document-units="mm"
     inkscape:zoom="14.799617"
     inkscape:cx="243.72253"
     inkscape:cy="99.293113"
     inkscape:window-width="1392"
     inkscape:window-height="1212"
     inkscape:window-x="0"
     inkscape:window-y="25"
     inkscape:window-maximized="0"
     inkscape:current-layer="layer1" /><defs
     id="defs1"><linearGradient
       id="linearGradient24"
       inkscape:collect="always"><stop
         style="stop-color:#535d6c;stop-opacity:1;"
         offset="0"
         id="stop24" /><stop
         style="stop-color:#383f4a;stop-opacity:1;"
         offset="1"
         id="stop25" /></linearGradient><linearGradient
       id="linearGradient22"
       inkscape:collect="always"><stop
         style="stop-color:#535d6c;stop-opacity:1;"
         offset="0"
         id="stop22" /><stop
         style="stop-color:#383f4a;stop-opacity:1;"
         offset="1"
         id="stop23" /></linearGradient><linearGradient
       id="linearGradient18"
       inkscape:collect="always"><stop
         style="stop-color:#0b0c10;stop-opacity:1;"
         offset="0"
         id="stop18" /><stop
         style="stop-color:#2a2f36;stop-opacity:1;"
         offset="1"
         id="stop19" /></linearGradient><linearGradient
       id="linearGradient15"
       inkscape:collect="always"><stop
         style="stop-color:#0e0e13;stop-opacity:1;"
         offset="0"
         id="stop15" /><stop
         style="stop-color:#62627a;stop-opacity:1;"
         offset="1"
         id="stop16" /></linearGradient><linearGradient
       id="linearGradient13"
       inkscape:collect="always"><stop
         style="stop-color:#15151f;stop-opacity:1;"
         offset="0"
         id="stop13" /><stop
         style="stop-color:#636381;stop-opacity:1;"
         offset="1"
         id="stop14" /></linearGradient><linearGradient
       id="linearGradient11"
       inkscape:collect="always"><stop
         style="stop-color:#191921;stop-opacity:1;"
         offset="0"
         id="stop11" /><stop
         style="stop-color:#6b6b88;stop-opacity:1;"
         offset="1"
         id="stop12" /></linearGradient><linearGradient
       id="linearGradient5"
       inkscape:collect="always"><stop
         style="stop-color:#676767;stop-opacity:1;"
         offset="0"
         id="stop5" /><stop
         style="stop-color:#222222;stop-opacity:1;"
         offset="1"
         id="stop6" /></linearGradient><linearGradient
       inkscape:collect="always"
       xlink:href="#linearGradient5"
       id="linearGradient6"
       x1="95.692726"
       y1="119.8185"
       x2="97.0924"
       y2="123.87016"
       gradientUnits="userSpaceOnUse"
       gradientTransform="matrix(0.84662595,-0.06510018,0.06510018,0.84662595,-14.022168,-72.125036)" /><linearGradient
       inkscape:collect="always"
       xlink:href="#linearGradient11"
       id="linearGradient12"
       x1="76.070969"
       y1="142.36446"
       x2="53.722435"
       y2="132.04974"
       gradientUnits="userSpaceOnUse"
       gradientTransform="matrix(0.84662595,-0.06510018,0.06510018,0.84662595,-14.022168,-72.125036)" /><linearGradient
       inkscape:collect="always"
       xlink:href="#linearGradient13"
       id="linearGradient14"
       x1="61.243576"
       y1="160.63008"
       x2="37.283367"
       y2="147.73669"
       gradientUnits="userSpaceOnUse"
       gradientTransform="matrix(0.84662595,-0.06510018,0.06510018,0.84662595,-14.022168,-72.125036)" /><linearGradient
       inkscape:collect="always"
       xlink:href="#linearGradient15"
       id="linearGradient16"
       x1="38.572708"
       y1="171.91179"
       x2="19.554966"
       y2="158.69608"
       gradientUnits="userSpaceOnUse"
       gradientTransform="matrix(0.84662595,-0.06510018,0.06510018,0.84662595,-14.022168,-72.125036)" /><linearGradient
       inkscape:collect="always"
       xlink:href="#linearGradient18"
       id="linearGradient19"
       x1="75.750488"
       y1="62.482578"
       x2="51.374565"
       y2="32.398376"
       gradientUnits="userSpaceOnUse"
       gradientTransform="matrix(0.84662595,-0.06510018,0.06510018,0.84662595,-4.3892804,13.850349)" /><filter
       inkscape:collect="always"
       style="color-interpolation-filters:sRGB"
       id="filter21"
       x="-0.052571931"
       y="-0.15304275"
       width="1.1051439"
       height="1.3060855"><feGaussianBlur
         inkscape:collect="always"
         stdDeviation="0.78907467"
         id="feGaussianBlur21" /></filter><filter
       inkscape:collect="always"
       style="color-interpolation-filters:sRGB"
       id="filter22"
       x="-0.13533213"
       y="-0.30449726"
       width="1.2706643"
       height="1.6089945"><feGaussianBlur
         inkscape:collect="always"
         stdDeviation="1.8839528"
         id="feGaussianBlur22" /></filter><linearGradient
       inkscape:collect="always"
       xlink:href="#linearGradient22"
       id="linearGradient23"
       x1="66.595718"
       y1="80.209686"
       x2="72.75235"
       y2="89.054428"
       gradientUnits="userSpaceOnUse"
       gradientTransform="matrix(0.84662595,-0.06510018,0.06510018,0.84662595,-4.3892804,13.850349)" /><linearGradient
       inkscape:collect="always"
       xlink:href="#linearGradient24"
       id="linearGradient25"
       x1="51.507626"
       y1="76.914581"
       x2="56.103424"
       y2="82.290802"
       gradientUnits="userSpaceOnUse"
       gradientTransform="matrix(0.84662595,-0.06510018,0.06510018,0.84662595,-4.3892804,13.850349)" /><filter
       inkscape:collect="always"
       style="color-interpolation-filters:sRGB"
       id="filter25"
       x="-0.20348093"
       y="-0.22509816"
       width="1.4069619"
       height="1.4501963"><feGaussianBlur
         inkscape:collect="always"
         stdDeviation="1.244725"
         id="feGaussianBlur25" /></filter></defs><g
     inkscape:label="Layer 1"
     inkscape:groupmode="layer"
     id="layer1"><path
       id="path10-6"
       style="fill:#000000;fill-opacity:1;stroke:#000000;stroke-width:2.12281;stroke-opacity:1;paint-order:markers stroke fill"
       d="m 62.53904,21.501711 c -1.527958,0.146685 -2.503145,0.716506 -4.99364,1.975795 -3.90067,3.456737 -5.008171,7.140671 -7.179837,11.810985 l 0.632795,0.165221 -1.337057,0.296898 -7.874667,5.024041 -4.223519,5.031552 -0.247397,0.20519 -0.21566,0.02271 -0.009,0.163524 -3.230247,2.679019 -2.21825,1.130852 0.594735,0.242529 3.760779,-1.909162 -14.676441,12.353977 c 0,0 0.174654,0.496629 0.759832,0.638242 l -3.308954,2.439495 1.256338,0.09572 -4.914124,3.547851 0.866592,0.02931 -6.2070444,5.471899 1.0798534,0.301605 -8.616547,5.368914 0.5654596,1.109561 2.1155701,0.02921 2.6663366,0.947574 4.3339137,0.147334 1.167935,1.446996 5.171111,-0.205744 5.509392,-2.056386 c 0,0 1.762619,-2.056535 2.335565,-2.10059 0.572954,-0.04406 13.259007,-4.957931 13.259007,-4.957931 l 0.82579,-0.472758 c 2.143352,2.012821 6.258065,6.031733 6.258065,6.031733 l -0.805991,0.203688 -0.922771,0.155888 -1.503166,-0.02613 -0.613016,0.132079 -0.613295,0.500457 -0.127734,0.548053 0.226628,0.26505 0.228342,-0.243265 0.762382,-0.398815 0.652287,0.0066 0.15805,0.95077 1.288432,0.813014 0.290527,-0.90582 c 0,0 2.822502,-0.132253 2.93731,-0.112764 0.114812,0.01953 2.003743,-0.0973 2.003743,-0.0973 l -0.264271,0.615322 1.15052,-0.513594 0.911936,-0.296775 2.348148,0.32951 c 0,0 -0.381304,-0.905712 -0.524272,-0.923044 -0.14297,-0.01737 -0.94022,-0.437337 -0.94022,-0.437337 l -1.165411,-0.05209 -1.381767,-0.290279 -1.256499,-0.498384 -0.591509,0.04548 -0.133952,-1.009401 -1.490461,-0.593499 -1.735291,-1.934568 -3.06181,-2.942915 3.727666,-0.7144 0.489781,-0.361128 3.122543,1.054206 1.741406,-0.06921 -0.09898,1.236796 2.115308,2.166312 0.05712,0.622741 6.1911,4.622859 0.645515,1.395191 1.074323,0.710439 -1.163379,0.71263 -1.945152,0.120963 -1.03577,-0.203336 -0.485126,-0.04764 -1.717804,0.868366 -0.209862,0.950897 0.402559,0.450507 0.03464,-0.654 0.929263,-0.07146 0.78205,0.22328 2.209862,0.368315 2.022906,-0.580683 1.366908,-0.274981 c 0,0 1.793921,0.485351 1.995378,0.52651 0.201449,0.04114 3.058431,-0.0085 3.058431,-0.0085 l 0.446448,0.277249 0.773372,0.110416 0.205401,0.834023 -0.50042,0.491769 0.916715,-0.240364 0.519896,-1.343093 -0.4203,-0.675772 -0.249292,-0.660774 c 0,0 -0.773166,-0.110423 -0.885809,-0.101762 -0.112644,0.0087 -3.061055,-0.01987 -3.061055,-0.01987 l -0.994225,-0.773377 -0.894491,-1.319268 -0.944559,-0.493773 -5.880752,-5.382992 -0.17711,-0.437482 0.245828,-0.574737 c 0,0 0.158743,-1.306048 0.401203,-1.518804 0.242464,-0.212765 -0.316582,-2.434454 -0.316582,-2.434454 l 2.548237,-1.360874 C 65.062348,66.347735 68.013018,61.0635 71.140559,50.128936 l 0.159967,-0.289115 0.02851,-0.384634 c 0.346141,-1.232161 0.694382,-2.512821 1.050295,-3.888884 1.100981,-4.798568 0.223997,-6.696103 -0.939803,-11.380717 0,0 0.257257,-0.01974 0.237472,-0.277037 -0.01978,-0.257307 -0.202811,-1.796269 -0.202811,-1.796269 l -0.192887,-1.6672 1.662273,-1.939682 1.436431,-1.179438 1.265782,-0.445442 2.842668,-0.971582 1.103465,-0.335703 0.822675,0.09342 -0.527643,-0.743673 -1.242416,-1.064991 -1.331581,-0.587676 -1.364942,-0.208831 -0.445582,0.0087 -0.0051,-0.06693 -0.964362,-0.0073 -0.578074,-0.157552 0.04304,0.153363 -3.097434,-0.02368 -1.054179,-0.242409 -3.512898,-1.088446 c -1.761757,-0.159039 -2.877568,-0.223582 -3.794344,-0.13557 z"
       sodipodi:nodetypes="scccccccccccccccccccccccccccccscccccccccccccccccccccccccccccccccccccccccccccccccccccccscccccccccscccccccscccccccsccccccccccccccccccccss" /><path
       style="fill:url(#linearGradient25);fill-opacity:1;stroke-width:2.12281;paint-order:markers stroke fill"
       d="m 38.969825,71.441708 c 0.259946,0.065 7.518688,7.155196 7.518688,7.155196 l -0.805835,0.203598 -0.922807,0.155951 -1.503344,-0.02604 -0.613039,0.132132 -0.61305,0.500378 -0.127823,0.548043 0.07579,0.985625 0.379116,-0.963945 0.762515,-0.398562 0.652025,0.0065 0.158108,0.95097 1.27154,0.695385 0.307625,-0.788488 c 0,0 2.822568,-0.132044 2.937377,-0.112556 0.11481,0.01953 2.003741,-0.09744 2.003741,-0.09744 l -0.264297,0.615187 1.150269,-0.513353 0.91198,-0.296744 2.348159,0.329338 c 0,0 -0.381227,-0.905488 -0.524196,-0.922819 -0.14297,-0.01737 -0.940119,-0.4376 -0.940119,-0.4376 l -1.165419,-0.05203 -1.382028,-0.29031 -1.256384,-0.498266 -0.591375,0.04547 L 48.602771,77.357875 47.112438,76.764289 45.377365,74.829824 40.8198,70.44962 Z"
       id="path10" /><path
       style="fill:url(#linearGradient23);fill-opacity:1;stroke-width:2.12281;paint-order:markers stroke fill"
       d="m 53.299196,73.965751 0.171074,1.85645 6.190878,4.622859 0.645489,1.395057 1.074414,0.710543 -1.16327,0.712647 -1.945258,0.121218 -1.035441,-0.203651 -0.485229,-0.04768 -1.717825,0.868598 -0.210151,0.950952 0.402902,0.450584 0.03468,-0.654191 0.929304,-0.07146 0.781992,0.22314 2.209517,0.368325 2.023252,-0.580489 1.366884,-0.275065 c 0,0 1.793602,0.485282 1.995057,0.526442 0.201454,0.04114 3.058683,-0.0086 3.058683,-0.0086 l 0.446229,0.277291 0.773333,0.110496 0.205765,0.833996 -0.500408,0.491717 0.916312,-0.240428 0.519927,-1.343027 -0.420223,-0.67587 -0.249094,-0.660695 c 0,0 -0.773333,-0.110504 -0.885975,-0.101843 -0.112643,0.0087 -3.060846,-0.01958 -3.060846,-0.01958 L 64.376903,82.830122 63.482299,81.510879 62.537847,81.016954 56.656759,75.633766 55.257493,72.17213 Z"
       id="path11" /><path
       style="fill:url(#linearGradient19);fill-opacity:1;stroke-width:2.12281;paint-order:markers stroke fill"
       d="M 75.539981,23.0932 70.94323,23.05844 69.889299,22.815954 66.376204,21.727276 c -4.69803,-0.424102 -4.803011,-0.174452 -8.787818,1.840419 -3.900693,3.456752 -5.00831,7.140506 -7.179989,11.810821 l 3.829774,0.999628 13.260645,5.839102 -15.804656,18.297486 -12.984077,12.062998 7.333074,-1.405033 0.489869,-0.361194 3.122199,1.054028 1.741722,-0.0692 -0.099,1.237011 2.879687,2.949135 1.890157,0.178186 0.658136,-1.538833 c 0,0 0.158378,-1.306284 0.400838,-1.51904 0.242463,-0.212765 -0.316604,-2.434461 -0.316604,-2.434461 l 2.548294,-1.360648 c 6.495983,-3.244049 9.418739,-9.559031 13.063583,-23.651371 1.100992,-4.798568 0.223978,-6.695963 -0.939801,-11.380572 0,0 0.257302,-0.01978 0.237517,-0.277083 -0.01978,-0.257307 -0.20282,-1.796157 -0.20282,-1.796157 l -0.192927,-1.667504 1.662606,-1.939589 3.043133,-2.49869 -0.430417,-2.231589 z"
       id="path6"
       sodipodi:nodetypes="ccccccccccccccccccsccccscccccc" /><path
       style="opacity:0.0645161;fill:#ffffff;stroke-width:2.5;paint-order:markers stroke fill;filter:url(#filter25)"
       d="m 79.301187,17.200146 c 0,0 -2.981526,-0.45289 -3.24571,-0.03774 -0.264186,0.415149 -4.076009,1.924782 -4.113749,2.30219 -0.03774,0.377408 -5.92531,7.661386 -5.92531,7.661386 l 1.207707,3.019266 3.170227,0.113224 0.339669,-3.245712 0.792557,-3.321192 2.151226,-3.094748 c 0,0 1.924783,-1.434151 2.415413,-1.736077 0.49063,-0.301927 2.75508,-1.207707 2.75508,-1.207707 l 1.8493,0.03774 z"
       id="path25"
       transform="matrix(0.84662595,-0.06510018,0.06510018,0.84662595,-3.2153947,13.318341)" /><ellipse
       style="fill:#4d4d4d;stroke-width:2.12281;paint-order:markers stroke fill"
       id="path2"
       cx="62.169998"
       cy="31.051893"
       rx="1.4699731"
       ry="1.2979549"
       transform="rotate(-4.3970306)" /><path
       style="fill:url(#linearGradient16);fill-opacity:1;stroke-width:2.12281;paint-order:markers stroke fill"
       d="m 23.906036,60.109442 -5.090529,3.75339 1.256075,0.09553 -4.914232,3.547723 0.866766,0.02941 -6.2070919,5.4722 1.0797769,0.301194 -8.616407,5.369303 0.565569,1.109178 2.1154985,0.02945 2.6663814,0.947639 4.3338311,0.147042 1.167889,1.447094 5.171225,-0.205524 5.509173,-2.056573 c 0,0 1.762974,-2.056689 2.335925,-2.100746 0.572948,-0.04406 13.258738,-4.957807 13.258738,-4.957807 l 7.360296,-4.216097 7.184035,-5.259154 1.116492,0.778658 2.673796,-1.454329 4.0254,-2.614869 2.159628,-1.895079 1.123906,-1.623318 4.892239,-5.08293 -12.479866,-3.651069 -7.727504,1.938983 z"
       id="path9" /><path
       style="fill:url(#linearGradient6);fill-opacity:1;stroke-width:2.12281;paint-order:markers stroke fill"
       d="m 73.997602,22.928453 0.172694,0.614093 -0.868381,0.945086 -1.307351,0.947466 -2.537916,0.853887 -1.146625,0.59006 0.225446,1.300139 2.070108,0.813241 3.372699,-1.419969 1.710335,-0.60204 2.84256,-0.971409 1.103442,-0.335798 0.822769,0.09358 -0.527707,-0.743639 -1.242528,-1.065087 -1.331293,-0.587735 -1.364888,-0.20873 -1.096237,0.02153 z"
       id="path5" /><path
       style="mix-blend-mode:normal;fill:#000000;stroke-width:2.5;paint-order:markers stroke fill;filter:url(#filter21)"
       d="m 31.021434,55.927555 -5.637131,2.612327 1.924873,1.924872 5.49964,1.37491 c 0,0 -5.985072,5.861992 -5.435107,5.999483 0.549963,0.137491 8.177797,-4.411606 8.177797,-4.411606 l 13.756223,4.874198 12.099203,-7.149528 z"
       id="path21"
       sodipodi:nodetypes="ccccscccc"
       transform="matrix(0.84662595,-0.06510018,0.06510018,0.84662595,-3.2153947,13.318341)" /><path
       style="fill:url(#linearGradient14);fill-opacity:1;stroke-width:2.12281;paint-order:markers stroke fill"
       d="M 37.06216,47.571085 21.364478,60.785149 c 0,0 0.249724,0.749242 1.204641,0.675815 0.954913,-0.07343 2.879465,-1.278023 2.879465,-1.278023 l 0.852008,2.335883 3.907771,0.852192 3.91515,-0.301051 -0.92558,1.704125 5.472386,-0.03657 2.005248,2.34327 c 0,0 5.450356,-0.323042 6.096769,-0.660914 0.646411,-0.337872 6.956302,-4.473198 6.956302,-4.473198 l 0.506791,1.593983 c 0,0 5.494487,-2.247555 5.86911,-2.372417 0.374623,-0.124861 4.289883,-4.172103 4.289883,-4.172103 l 3.092623,-6.00117 c 0,0 -3.040896,-4.568986 -3.922348,-4.789374 -0.881449,-0.220389 -12.891274,-1.506195 -12.891274,-1.506195 l -13.530421,1.424626 z"
       id="path8" /><path
       style="mix-blend-mode:normal;fill:#000000;stroke-width:2.5;paint-order:markers stroke fill;filter:url(#filter22)"
       d="m 47.520347,43.140896 -4.124729,3.162292 5.499637,1.237417 5.912111,7.01204 11.54924,3.437274 10.449311,-5.774621 -18.011314,-5.224656 z"
       id="path22"
       transform="matrix(0.84662595,-0.06510018,0.06510018,0.84662595,-3.2153947,13.318341)" /><path
       style="fill:url(#linearGradient12);fill-opacity:1;stroke-width:2.12281;paint-order:markers stroke fill"
       d="m 68.442326,38.434219 -4.186903,-0.734665 -1.755562,-0.345295 -2.916105,-1.696889 -3.988578,-0.653868 -3.24671,0.249652 -2.644391,0.587567 -7.874504,5.024081 -4.223798,5.03153 -3.702213,3.070305 -2.218369,1.131134 0.594976,0.242416 3.790326,-1.924404 -0.220389,0.881455 3.224682,-0.536125 1.189952,0.484834 2.137527,0.315915 0.205631,1.42503 2.078748,0.800721 1.270725,1.535243 2.541482,1.821751 2.798626,0.169034 1.54989,0.16899 1.469086,0.367314 2.27711,-0.367207 1.630697,-0.02933 2.894116,0.161683 0.925543,-0.455391 0.925544,-0.455391 1.57192,0.455463 2.14487,0.411415 2.548936,-1.82895 2.108264,-3.812248 0.330677,-4.444008 -1.322051,-4.701145 z"
       id="path7" /></g></svg>
