<?xml version="1.0" encoding="UTF-8" standalone="no"?>
<!-- Created with Inkscape (http://www.inkscape.org/) -->

<svg
   width="97mm"
   height="74mm"
   viewBox="0 0 97 74"
   version="1.1"
   id="svg1"
   inkscape:version="1.3.2 (091e20e, 2023-11-25)"
   sodipodi:docname="incorrect.svg"
   xml:space="preserve"
   xmlns:inkscape="http://www.inkscape.org/namespaces/inkscape"
   xmlns:sodipodi="http://sodipodi.sourceforge.net/DTD/sodipodi-0.dtd"
   xmlns="http://www.w3.org/2000/svg"
   xmlns:svg="http://www.w3.org/2000/svg"><sodipodi:namedview
     id="namedview1"
     pagecolor="#505050"
     bordercolor="#eeeeee"
     borderopacity="1"
     inkscape:showpageshadow="0"
     inkscape:pageopacity="0"
     inkscape:pagecheckerboard="0"
     inkscape:deskcolor="#505050"
     inkscape:document-units="mm"
     inkscape:zoom="1.4217087"
     inkscape:cx="230.00492"
     inkscape:cy="133.99369"
     inkscape:window-width="1512"
     inkscape:window-height="806"
     inkscape:window-x="874"
     inkscape:window-y="362"
     inkscape:window-maximized="0"
     inkscape:current-layer="layer1" /><defs
     id="defs1" /><g
     inkscape:label="Layer 1"
     inkscape:groupmode="layer"
     id="layer1"><rect
       style="fill:#ff5555;fill-opacity:1;stroke:none;stroke-width:0.570017;paint-order:markers stroke fill"
       id="rect2"
       width="109.68867"
       height="86.898155"
       x="-6.7837677"
       y="-6.3854222" /><path
       d="m 11.511332,22.341726 q 0.567564,0.02183 0.938664,0.34927 0.371099,0.305612 0.480246,0.72037 0.109147,0.414759 -0.06549,0.829517 -0.174635,0.392929 -0.72037,0.611223 -0.392929,0.152806 -0.938664,0.196465 -0.523905,0.04366 -1.06964,0.02183 -0.5239051,0 -0.9823231,-0.04366 -0.458417,-0.02183 -0.69854,-0.02183 h -1.287932 q -0.458418,0 -0.785858,-0.261953 -0.327441,-0.240123 -0.480247,-0.589394 -0.130976,-0.34927 -0.06549,-0.742199 0.08732,-0.392929 0.414758,-0.72037 0.305612,-0.305611 0.807688,-0.34927 0.502076,-0.04366 1.004152,0 v -8.64444 q -0.502076,0 -0.938664,0 -0.436588,-0.02183 -0.873176,-0.32744 -0.327441,-0.240124 -0.436588,-0.545735 -0.109147,-0.327442 -0.04366,-0.633054 0.08732,-0.32744 0.305612,-0.611223 0.218294,-0.283782 0.545735,-0.414758 0.305611,-0.130976 0.633052,-0.130976 1.113299,0 2.226598,0 1.1351281,-0.02183 2.2702571,0 0.109147,0 0.196465,0.06549 0.109146,0.06549 0.218293,0.109147 0.502076,0.283782 0.676712,0.807687 0.174635,0.523906 -0.130977,1.025983 -0.152805,0.261952 -0.392929,0.414758 -0.218294,0.130977 -0.502076,0.196465 -0.261953,0.04366 -0.545735,0.04366 -0.283782,0 -0.545735,0 v 8.688099 q 0.174636,0 0.305612,0 0.152806,-0.02183 0.327441,-0.04366 z m 11.848736,1.724522 q -0.0655,0.545735 -0.41476,0.895005 -0.32744,0.34927 -0.76403,0.436588 -0.41476,0.08732 -0.80769,-0.109147 -0.39293,-0.196465 -0.56756,-0.764029 -0.196465,-0.611223 -0.152806,-1.266105 0.04366,-0.676711 0.04366,-1.244275 0,-1.178787 0,-2.335745 0.02183,-1.178787 -0.08732,-2.357574 -0.02183,-0.04366 -0.04366,-0.06549 -0.02183,-0.04366 -0.08732,-0.109146 -0.502076,-0.130977 -1.069641,0.06549 -0.567564,0.196464 -0.960493,0.502076 -0.34927,0.283782 -0.69854,0.785858 -0.327441,0.480246 -0.327441,0.938664 v 3.012456 q 0,0.34927 0.02183,0.764029 0.02183,0.414758 -0.04366,0.807687 -0.04366,0.392929 -0.240123,0.72037 -0.196465,0.327441 -0.633052,0.480247 -0.240124,0.08732 -0.458418,0.06549 -0.196464,-0.02183 -0.436587,-0.109147 -0.39293,-0.130976 -0.567565,-0.458417 -0.174635,-0.305612 -0.240123,-0.654882 -0.06549,-0.3711 -0.06549,-0.698541 0.02183,-0.34927 0.02183,-0.545735 0,-0.502076 -0.02183,-1.440739 0,-0.960494 0,-2.008304 0,-1.047811 0,-1.986475 0,-0.960493 0,-1.462569 0,-0.480247 0.283782,-0.785859 0.283782,-0.32744 0.654882,-0.414758 0.392929,-0.109147 0.807687,0.04366 0.436588,0.130976 0.72037,0.567564 0.873176,-0.567564 1.920987,-0.764029 1.047811,-0.196464 1.964641,0.06549 0.93867,0.261953 1.54989,0.982323 0.63305,0.72037 0.65488,1.986475 0,0.04366 0.0218,0.261952 0.0218,0.218294 0.0218,0.611223 z m 7.4392,-2.16111 q 0.54574,-0.34927 1.02599,-0.305611 0.50207,0.04366 0.80768,0.34927 0.32744,0.283782 0.34927,0.785858 0.0437,0.480247 -0.32744,1.025981 -0.24012,0.3711 -0.69854,0.676712 -0.43659,0.305611 -0.85134,0.480246 -0.9605,0.436588 -1.94282,0.392929 -0.98232,-0.04366 -1.83367,-0.480246 -0.82952,-0.436588 -1.44074,-1.200617 -0.61122,-0.785858 -0.82952,-1.81184 -0.43658,-1.964645 0.17464,-3.776484 0.24012,-0.654882 0.56756,-1.266105 0.34928,-0.611223 0.82952,-1.113299 0.48025,-0.502076 1.06964,-0.873176 0.58939,-0.392929 1.28794,-0.523905 0.48024,-0.08732 1.22244,0.02183 0.7422,0.08732 1.44074,0.3711 0.72037,0.283782 1.24428,0.742199 0.54573,0.458417 0.61122,1.09147 0.0437,0.34927 -0.0873,0.654882 -0.13098,0.283782 -0.3711,0.480246 -0.24012,0.196465 -0.56756,0.283782 -0.30561,0.06549 -0.63306,-0.02183 -0.39292,-0.109147 -0.63305,-0.283782 -0.21829,-0.196465 -0.58939,-0.502076 -0.17464,-0.04366 -0.32744,-0.130977 -0.15281,-0.109147 -0.32744,-0.08732 l -0.5894,0.06549 q -0.1528,0.08732 -0.28378,0.152806 -0.13098,0.06549 -0.26195,0.130976 -0.7422,0.742199 -1.09147,1.659034 -0.34927,0.895005 -0.17464,1.942816 0.10915,0.676711 0.41476,1.113299 0.32744,0.436588 0.7422,0.611223 0.43659,0.152806 0.93867,0.02183 0.5239,-0.130976 1.02598,-0.589393 z m 2.98602,-2.488551 q 0.15281,-0.633052 0.41476,-1.244275 0.28378,-0.611223 0.67671,-1.156958 0.39293,-0.567564 0.87318,-1.025981 0.50208,-0.458418 1.06964,-0.7422 1.00415,-0.523905 2.0083,-0.523905 1.02599,-0.02183 1.89916,0.392929 0.87318,0.414758 1.4844,1.244275 0.61122,0.807688 0.80769,1.942816 0.10914,0.7422 0.10914,1.418911 0.0218,0.654882 -0.13097,1.375252 -0.2183,1.025981 -0.89501,2.051962 -0.65488,1.004152 -1.59354,1.680864 -0.91684,0.69854 -2.03014,0.916834 -1.09147,0.218294 -2.20476,-0.34927 -0.50208,-0.240124 -0.91684,-0.567564 -0.39293,-0.305612 -0.72037,-0.7422 -0.3711,-0.480246 -0.58939,-1.004152 -0.19647,-0.523905 -0.32744,-1.091469 -0.15281,-0.611223 -0.10915,-1.222446 0.0437,-0.633053 0.15281,-1.222446 z m 2.61953,0.458418 q -0.0655,0.34927 -0.10914,0.69854 -0.0437,0.327441 0,0.676711 0.0655,0.502076 0.26195,0.916835 0.21829,0.414758 0.54573,0.654881 0.34927,0.240124 0.78586,0.261953 0.43659,0 0.93866,-0.283782 0.63306,-0.3711 1.09147,-1.135128 0.45842,-0.785858 0.56757,-1.615375 0.10914,-0.851347 -0.17464,-1.593546 -0.28378,-0.764029 -1.1133,-1.09147 -0.54573,0 -1.00415,0.218294 -0.45842,0.196465 -0.80769,0.545735 -0.32744,0.327441 -0.58939,0.785858 -0.24012,0.458418 -0.39293,0.960494 z m 8.42154,-1.920987 q 0,0.08732 0.0218,-0.04366 0.0218,-0.152806 -0.0218,-0.523905 -0.34927,-0.196465 -0.54573,-0.502076 -0.19647,-0.305612 -0.24013,-0.654882 -0.0218,-0.34927 0.13098,-0.654882 0.17464,-0.327441 0.54573,-0.545735 0.50208,-0.283782 1.09147,-0.109146 0.61123,0.174635 1.04782,0.523905 0.54573,-0.414759 1.13512,-0.698541 0.5894,-0.283782 1.20062,-0.371099 0.61122,-0.109147 1.24428,0.02183 0.63305,0.130976 1.24427,0.545735 0.30561,0.196464 0.56756,0.502076 0.26196,0.283782 0.32745,0.654882 0.10914,0.545734 -0.0873,0.960493 -0.19647,0.392929 -0.54574,0.589394 -0.34927,0.174635 -0.78586,0.109146 -0.43658,-0.08732 -0.82951,-0.480246 -0.13098,-0.08732 -0.19647,-0.130976 -0.0437,-0.06549 -0.21829,-0.152806 -0.34927,-0.08732 -0.69854,0.04366 -0.32744,0.130976 -0.65488,0.371099 -0.30562,0.218294 -0.5894,0.502076 -0.26195,0.261953 -0.48024,0.480247 v 5.566495 q 0,0.327441 -0.13098,0.633052 -0.19647,0.502076 -0.63305,0.698541 -0.41476,0.196464 -0.85135,0.109147 -0.41476,-0.08732 -0.7422,-0.436588 -0.30561,-0.34927 -0.30561,-0.895005 v -6.11223 z m 9.40387,0 q 0,0.08732 0.0218,-0.04366 0.0218,-0.152806 -0.0218,-0.523905 -0.34927,-0.196465 -0.54574,-0.502076 -0.19646,-0.305612 -0.24012,-0.654882 -0.0218,-0.34927 0.13098,-0.654882 0.17463,-0.327441 0.54573,-0.545735 0.50208,-0.283782 1.09147,-0.109146 0.61122,0.174635 1.04781,0.523905 0.54574,-0.414759 1.13513,-0.698541 0.58939,-0.283782 1.20062,-0.371099 0.61122,-0.109147 1.24427,0.02183 0.63305,0.130976 1.24428,0.545735 0.30561,0.196464 0.56756,0.502076 0.26195,0.283782 0.32744,0.654882 0.10915,0.545734 -0.0873,0.960493 -0.19646,0.392929 -0.54573,0.589394 -0.34927,0.174635 -0.78586,0.109146 -0.43659,-0.08732 -0.82952,-0.480246 -0.13097,-0.08732 -0.19646,-0.130976 -0.0437,-0.06549 -0.2183,-0.152806 -0.34927,-0.08732 -0.69854,0.04366 -0.32744,0.130976 -0.65488,0.371099 -0.30561,0.218294 -0.58939,0.502076 -0.26196,0.261953 -0.48025,0.480247 v 5.566495 q 0,0.327441 -0.13098,0.633052 -0.19646,0.502076 -0.63305,0.698541 -0.41476,0.196464 -0.85134,0.109147 -0.41476,-0.08732 -0.7422,-0.436588 -0.30561,-0.34927 -0.30561,-0.895005 v -6.11223 z m 15.64709,3.754655 q 0.5239,-0.130976 0.91683,0 0.41476,0.109147 0.63305,0.39293 0.2183,0.283782 0.19647,0.69854 -0.0218,0.414759 -0.3711,0.873176 -0.28378,0.371099 -0.78586,0.633052 -0.50208,0.261953 -0.93866,0.414759 -1.06964,0.392929 -2.03014,0.545734 -0.96049,0.152806 -1.81184,0 -0.82951,-0.152805 -1.57171,-0.633052 -0.72037,-0.480247 -1.35343,-1.353422 -0.43658,-0.589394 -0.65488,-1.331593 -0.19646,-0.764029 -0.21829,-1.549887 -0.0218,-0.785858 0.13097,-1.549887 0.15281,-0.764029 0.43659,-1.375252 0.3711,-0.764028 1.17879,-1.397081 0.80769,-0.633052 1.79001,-1.004152 0.98232,-0.371099 2.0083,-0.414758 1.02599,-0.06549 1.81184,0.305611 0.65488,0.305612 1.1133,0.895005 0.48025,0.567565 0.65488,1.244276 0.17464,0.676711 0.0218,1.375251 -0.13097,0.676712 -0.69854,1.244276 -0.54573,0.545735 -1.20061,0.895005 -0.65489,0.327441 -1.35343,0.589393 -0.69854,0.240124 -1.44074,0.414759 -0.72037,0.174635 -1.39708,0.392929 0.45842,0.523905 1.04781,0.676711 0.5894,0.130976 1.22245,0.04366 0.65488,-0.08732 1.30976,-0.34927 0.65489,-0.283782 1.22245,-0.611223 z m -4.40954,-3.754655 q -0.50208,0.283782 -0.7422,0.72037 -0.24012,0.414758 -0.34927,1.178787 0.56756,-0.174635 1.2661,-0.3711 0.72037,-0.196464 1.35343,-0.414758 0.63305,-0.218294 1.06964,-0.480247 0.43658,-0.261952 0.43658,-0.567564 0,-0.174635 -0.0655,-0.327441 -0.0437,-0.174635 -0.21829,-0.240123 -0.61122,-0.218294 -1.2661,-0.08732 -0.65489,0.130977 -1.09147,0.3711 z m 13.31134,3.95112 q 0.54574,-0.34927 1.02598,-0.305611 0.50208,0.04366 0.80769,0.34927 0.32744,0.283782 0.34927,0.785858 0.0437,0.480247 -0.32744,1.025981 -0.24012,0.3711 -0.69854,0.676712 -0.43659,0.305611 -0.85135,0.480246 -0.96049,0.436588 -1.94281,0.392929 -0.98232,-0.04366 -1.83367,-0.480246 -0.82952,-0.436588 -1.44074,-1.200617 -0.61122,-0.785858 -0.82952,-1.81184 -0.43659,-1.964645 0.17464,-3.776484 0.24012,-0.654882 0.56756,-1.266105 0.34927,-0.611223 0.82952,-1.113299 0.48025,-0.502076 1.06964,-0.873176 0.58939,-0.392929 1.28793,-0.523905 0.48025,-0.08732 1.22245,0.02183 0.7422,0.08732 1.44074,0.3711 0.72037,0.283782 1.24427,0.742199 0.54574,0.458417 0.61123,1.09147 0.0437,0.34927 -0.0873,0.654882 -0.13098,0.283782 -0.3711,0.480246 -0.24013,0.196465 -0.56757,0.283782 -0.30561,0.06549 -0.63305,-0.02183 -0.39293,-0.109147 -0.63305,-0.283782 -0.2183,-0.196465 -0.5894,-0.502076 -0.17463,-0.04366 -0.32744,-0.130977 -0.1528,-0.109147 -0.32744,-0.08732 l -0.58939,0.06549 q -0.15281,0.08732 -0.28378,0.152806 -0.13098,0.06549 -0.26195,0.130976 -0.74221,0.742199 -1.09147,1.659034 -0.34927,0.895005 -0.17464,1.942816 0.10915,0.676711 0.41476,1.113299 0.32744,0.436588 0.7422,0.611223 0.43659,0.152806 0.93866,0.02183 0.52391,-0.130976 1.02598,-0.589393 z m 4.90701,-4.540514 q -0.43659,-0.109147 -0.76403,-0.371099 -0.30561,-0.261953 -0.43659,-0.611223 -0.10914,-0.34927 0,-0.72037 0.13098,-0.3711 0.54574,-0.676711 0.34927,-0.261953 0.78586,-0.261953 0.43658,0 0.85134,0 0,-0.152806 -0.0218,-0.654883 -0.0218,-0.523905 -0.0218,-1.135128 0.0218,-0.611224 0.0873,-1.156959 0.0655,-0.567564 0.24013,-0.785858 0.43659,-0.611224 1.06964,-0.567565 0.65488,0.02183 1.06964,0.611224 0.0873,0.109147 0.1528,0.261952 0.0873,0.152806 0.0873,0.283782 0.0218,0.785859 0,1.571718 0,0.785858 0,1.571717 h 1.72453 q 0.39293,0 0.67671,0.261953 0.28378,0.261952 0.39293,0.611223 0.13097,0.34927 0.0655,0.72037 -0.0437,0.371099 -0.32744,0.611223 -0.50208,0.414758 -1.17879,0.436587 -0.65488,0.02183 -1.35342,0.02183 0,1.200616 -0.0218,2.401233 0,1.200617 0.0218,2.401233 0,0.523906 0.0437,1.06964 0.0655,0.545735 -0.0655,1.047811 -0.10915,0.392929 -0.3711,0.611223 -0.26196,0.240123 -0.5894,0.283782 -0.32744,0.06549 -0.67671,-0.04366 -0.34927,-0.08732 -0.65488,-0.34927 -0.15281,-0.152806 -0.24012,-0.523905 -0.0655,-0.3711 -0.0873,-0.785858 -0.0218,-0.480247 0,-1.025982 0,-0.436588 0,-1.135128 0,-0.698541 -0.0218,-1.44074 0,-0.764029 0,-1.44074 0,-0.676711 0,-1.06964 z m 9.44749,6.068571 q 0,0.545735 -0.26196,0.938664 -0.24012,0.3711 -0.61122,0.567565 -0.3711,0.196464 -0.82952,0.196464 -0.43658,0.02183 -0.82951,-0.152806 -0.39293,-0.152805 -0.67672,-0.502076 -0.26195,-0.34927 -0.30561,-0.895005 -0.0437,-0.567564 0.19647,-0.938664 0.26195,-0.392929 0.65488,-0.589393 0.39293,-0.196465 0.85135,-0.196465 0.45841,-0.02183 0.85134,0.152806 0.41476,0.152806 0.67671,0.523905 0.28379,0.349271 0.28379,0.895005 z"
       id="text1"
       style="font-weight:bold;font-size:19.7556px;line-height:0.9;font-family:Chalkboard;-inkscape-font-specification:'Chalkboard Bold';text-align:center;letter-spacing:-0.288396px;text-anchor:middle;fill:#ffffff;stroke:#000000;stroke-width:2.5;paint-order:markers stroke fill"
       aria-label="Incorrect." /><path
       d="m -15.872942,37.644672 v -4.36976 h 1.509641 v 4.36976 q 0,1.133437 -0.352089,1.765267 -0.655946,1.157553 -2.503207,1.157553 -1.847261,0 -2.50803,-1.157553 -0.352089,-0.63183 -0.352089,-1.765267 v -4.36976 h 1.509641 v 4.36976 q 0,0.733116 0.173633,1.070736 0.270096,0.598069 1.176845,0.598069 0.901926,0 1.172022,-0.598069 0.173633,-0.33762 0.173633,-1.070736 z m 6.1504886,-2.27652 q 0.6173612,0.395497 0.7090008,1.360124 h -1.3745934 q -0.02894,-0.265272 -0.149517,-0.419612 -0.226688,-0.279742 -0.771702,-0.279742 -0.448551,0 -0.641477,0.139871 -0.188102,0.139871 -0.188102,0.327973 0,0.236333 0.202572,0.342442 0.202571,0.110933 1.432471,0.381028 0.8199326,0.192925 1.2298991,0.583599 0.4051433,0.395497 0.4051433,0.988743 0,0.781348 -0.5835993,1.278131 -0.5787761,0.491959 -1.7942061,0.491959 -1.239546,0 -1.832791,-0.520898 -0.588423,-0.525722 -0.588423,-1.336008 h 1.393886 q 0.04341,0.366558 0.188103,0.520898 0.255626,0.274919 0.945334,0.274919 0.405143,0 0.641477,-0.120579 0.241157,-0.120578 0.241157,-0.361735 0,-0.23151 -0.192926,-0.352088 -0.192925,-0.120579 -1.432471,-0.41479 -0.89228,-0.221864 -1.258838,-0.554661 -0.366558,-0.327973 -0.366558,-0.945334 0,-0.728293 0.56913,-1.249192 0.573953,-0.525722 1.610927,-0.525722 0.983919,0 1.6061036,0.390674 z m 6.0829649,3.472657 q -0.053055,0.467844 -0.4871366,0.950158 -0.6752389,0.766878 -1.8906688,0.766878 -1.0032121,0 -1.7700905,-0.6463 -0.7668784,-0.6463 -0.7668784,-2.102886 0,-1.364948 0.6897083,-2.093241 0.6945314,-0.728293 1.7990292,-0.728293 0.6559463,0 1.181668,0.24598 0.5257217,0.245979 0.8681643,0.776524 0.3086806,0.467844 0.4003202,1.085206 0.053054,0.361735 0.043408,1.041797 h -3.5980585 q 0.028939,0.790994 0.4967828,1.109321 0.284565,0.197748 0.6848852,0.197748 0.4244358,0 0.6897082,-0.241157 0.1446941,-0.130224 0.2556262,-0.361735 z m -1.360124,-1.610927 q -0.033762,-0.545014 -0.3327963,-0.824756 -0.2942112,-0.284565 -0.7331165,-0.284565 -0.4774903,0 -0.7427627,0.299035 -0.2604493,0.299034 -0.3279732,0.810286 z m 6.9280049,2.175234 v 1.027328 L 1.2772692,40.45656 Q 0.30299597,40.490321 -0.053916,40.11894 -0.28542647,39.882606 -0.28542647,39.390647 V 36.154323 H -1.0185429 v -0.979096 h 0.73311643 V 33.708994 H 1.0746975 v 1.466233 h 0.8536949 v 0.979096 H 1.0746975 v 2.778126 q 0,0.32315 0.081993,0.405143 0.081993,0.07717 0.501606,0.07717 0.062701,0 0.1302247,0 0.072347,-0.0048 0.1398709,-0.0096 z m 5.3450258,-2.10771 v 3.086806 H 5.8698859 v -3.197738 q 0,-0.424436 -0.144694,-0.684885 -0.1881023,-0.366558 -0.7138239,-0.366558 -0.5450143,0 -0.8295792,0.366558 -0.2797418,0.361735 -0.2797418,1.036974 v 2.845649 H 2.5322767 V 33.299028 H 3.902047 v 2.512853 q 0.2990343,-0.458198 0.6897082,-0.636654 0.3954971,-0.183279 0.8295792,-0.183279 0.4871366,0 0.8826337,0.16881 0.4003202,0.168809 0.6559463,0.516075 0.2170411,0.294211 0.2652724,0.607715 0.048231,0.308681 0.048231,1.012858 z m 5.4945428,1.543403 q -0.05305,0.467844 -0.487136,0.950158 -0.675239,0.766878 -1.890669,0.766878 -1.0032122,0 -1.7700907,-0.6463 -0.7668784,-0.6463 -0.7668784,-2.102886 0,-1.364948 0.6897083,-2.093241 0.6945314,-0.728293 1.7990288,-0.728293 0.655947,0 1.181668,0.24598 0.525722,0.245979 0.868165,0.776524 0.30868,0.467844 0.40032,1.085206 0.05305,0.361735 0.04341,1.041797 H 9.2374266 q 0.028939,0.790994 0.4967829,1.109321 0.2845645,0.197748 0.6848855,0.197748 0.424435,0 0.689708,-0.241157 0.144694,-0.130224 0.255626,-0.361735 z m -1.360124,-1.610927 q -0.03376,-0.545014 -0.332796,-0.824756 -0.294211,-0.284565 -0.733117,-0.284565 -0.4774899,0 -0.7427623,0.299035 -0.2604493,0.299034 -0.3279732,0.810286 z m 6.513217,-3.95497 h 1.316716 l -0.226687,2.937289 h -0.868164 z m -0.511252,0 -0.23151,2.937289 h -0.868165 l -0.217041,-2.937289 z m 3.025097,0 h 1.485525 v 5.83117 h 3.520889 v 1.27813 h -5.006414 z m 7.047592,1.852084 v 5.257216 h -1.393886 v -5.257216 z m 0,-1.895492 v 1.268484 h -1.393886 v -1.268484 z m 4.664963,2.136648 q 0.617361,0.395497 0.709001,1.360124 h -1.374594 q -0.02894,-0.265272 -0.149517,-0.419612 -0.226687,-0.279742 -0.771701,-0.279742 -0.448552,0 -0.641477,0.139871 -0.188103,0.139871 -0.188103,0.327973 0,0.236333 0.202572,0.342442 0.202572,0.110933 1.432471,0.381028 0.819933,0.192925 1.229899,0.583599 0.405144,0.395497 0.405144,0.988743 0,0.781348 -0.5836,1.278131 -0.578776,0.491959 -1.794206,0.491959 -1.239545,0 -1.832791,-0.520898 -0.588422,-0.525722 -0.588422,-1.336008 h 1.393886 q 0.04341,0.366558 0.188102,0.520898 0.255626,0.274919 0.945334,0.274919 0.405144,0 0.641477,-0.120579 0.241157,-0.120578 0.241157,-0.361735 0,-0.23151 -0.192925,-0.352088 -0.192926,-0.120579 -1.432471,-0.41479 -0.89228,-0.221864 -1.258839,-0.554661 -0.366558,-0.327973 -0.366558,-0.945334 0,-0.728293 0.56913,-1.249192 0.573953,-0.525722 1.610927,-0.525722 0.98392,0 1.606104,0.390674 z m 3.989724,4.036964 v 1.027328 l -0.651123,0.02412 q -0.974273,0.03376 -1.331185,-0.33762 -0.23151,-0.236334 -0.23151,-0.728293 v -3.236324 h -0.733117 v -0.979096 h 0.733117 v -1.466233 h 1.360124 v 1.466233 h 0.853694 v 0.979096 h -0.853694 v 2.778126 q 0,0.32315 0.08199,0.405143 0.08199,0.07717 0.501606,0.07717 0.0627,0 0.130224,0 0.07235,-0.0048 0.139871,-0.0096 z m 5.094221,-0.564307 q -0.05305,0.467844 -0.487136,0.950158 -0.675239,0.766878 -1.890669,0.766878 -1.003212,0 -1.770091,-0.6463 -0.766878,-0.6463 -0.766878,-2.102886 0,-1.364948 0.689708,-2.093241 0.694532,-0.728293 1.799029,-0.728293 0.655947,0 1.181668,0.24598 0.525722,0.245979 0.868165,0.776524 0.30868,0.467844 0.40032,1.085206 0.05305,0.361735 0.04341,1.041797 h -3.598058 q 0.02894,0.790994 0.496782,1.109321 0.284565,0.197748 0.684886,0.197748 0.424435,0 0.689708,-0.241157 0.144694,-0.130224 0.255626,-0.361735 z m -1.360124,-1.610927 q -0.03376,-0.545014 -0.332796,-0.824756 -0.294211,-0.284565 -0.733117,-0.284565 -0.47749,0 -0.742762,0.299035 -0.26045,0.299034 -0.327973,0.810286 z m 4.539562,-1.085205 q -0.699354,0 -0.959804,0.593246 -0.135048,0.313503 -0.135048,0.80064 v 2.845649 h -1.36977 v -5.24757 h 1.326362 v 0.766878 q 0.265273,-0.405143 0.501606,-0.583599 0.424436,-0.318327 1.075559,-0.318327 0.81511,0 1.331186,0.429259 0.520898,0.424436 0.520898,1.413179 v 3.54018 h -1.408355 v -3.197738 q 0,-0.414789 -0.110932,-0.636654 -0.202572,-0.405143 -0.771702,-0.405143 z m 5.263036,-2.869765 h 1.316716 l -0.226687,2.937289 h -0.868164 z m -0.511252,0 -0.23151,2.937289 H 48.062946 L 47.845905,33.274912 Z M -27.75388,49.414086 q -0.651123,0 -1.04662,-0.26045 -0.236334,-0.15434 -0.511253,-0.540191 v 0.66077 h -1.345654 V 42.17456 h 1.36977 v 2.527323 q 0.260449,-0.366558 0.573953,-0.559484 0.371382,-0.241156 0.945335,-0.241156 1.036974,0 1.620573,0.747585 0.588422,0.747586 0.588422,1.929254 0,1.225077 -0.578776,2.03054 -0.578776,0.805464 -1.61575,0.805464 z m 0.752409,-2.69131 q 0,-0.559483 -0.144694,-0.926041 -0.274919,-0.694532 -1.012858,-0.694532 -0.747586,0 -1.027328,0.680062 -0.144694,0.361735 -0.144694,0.935688 0,0.675239 0.299034,1.118968 0.299035,0.443728 0.911573,0.443728 0.530545,0 0.824756,-0.429259 0.294211,-0.429259 0.294211,-1.128614 z m 5.509012,1.808676 q -0.01929,0.02412 -0.09646,0.144694 -0.07717,0.120578 -0.183279,0.212218 -0.32315,0.289388 -0.627007,0.395497 -0.299035,0.106109 -0.704178,0.106109 -1.167199,0 -1.572342,-0.839226 -0.226687,-0.46302 -0.226687,-1.364947 v -3.168799 h 1.408355 v 3.168799 q 0,0.448552 0.106109,0.675239 0.188102,0.40032 0.73794,0.40032 0.704177,0 0.964627,-0.56913 0.135047,-0.30868 0.135047,-0.815109 v -2.860119 h 1.393886 v 5.257217 h -1.336008 z m 4.780719,-0.236334 v 1.027328 l -0.651124,0.02412 q -0.974273,0.03376 -1.331185,-0.33762 -0.23151,-0.236333 -0.23151,-0.728293 v -3.236324 h -0.733117 v -0.979096 h 0.733117 v -1.466233 h 1.360124 v 1.466233 h 0.853695 v 0.979096 h -0.853695 v 2.778126 q 0,0.32315 0.08199,0.405143 0.08199,0.07717 0.501606,0.07717 0.0627,0 0.130225,0 0.07235,-0.0048 0.139871,-0.0096 z m 3.000981,0 v 1.027328 l -0.651123,0.02412 q -0.974273,0.03376 -1.331185,-0.33762 -0.231511,-0.236333 -0.231511,-0.728293 v -3.236324 h -0.733116 v -0.979096 h 0.733116 v -1.466233 h 1.360124 v 1.466233 h 0.853695 v 0.979096 h -0.853695 v 2.778126 q 0,0.32315 0.08199,0.405143 0.08199,0.07717 0.501606,0.07717 0.0627,0 0.130225,0 0.07235,-0.0048 0.139871,-0.0096 z m 4.9784675,-3.612528 q 0.6655926,0.834403 0.6655926,1.972662 0,1.157553 -0.6655926,1.982309 -0.6655926,0.819933 -2.0208935,0.819933 -1.355301,0 -2.020893,-0.819933 -0.665593,-0.824756 -0.665593,-1.982309 0,-1.138259 0.665593,-1.972662 0.665592,-0.834402 2.020893,-0.834402 1.3553009,0 2.0208935,0.834402 z m -2.0257165,0.327974 q -0.602892,0 -0.930865,0.429259 -0.32315,0.424435 -0.32315,1.215429 0,0.790995 0.32315,1.220254 0.327973,0.429259 0.930865,0.429259 0.602892,0 0.9260418,-0.429259 0.32315,-0.429259 0.32315,-1.220254 0,-0.790994 -0.32315,-1.215429 -0.3231498,-0.429259 -0.9260418,-0.429259 z m 5.8611012,0.02411 q -0.6993545,0 -0.9598038,0.593246 -0.1350478,0.313504 -0.1350478,0.80064 v 2.84565 h -1.3697702 v -5.247571 h 1.326362 v 0.766878 q 0.2652724,-0.405143 0.501606,-0.583599 0.4244359,-0.318327 1.0755591,-0.318327 0.8151098,0 1.3311852,0.429259 0.5208985,0.424436 0.5208985,1.413179 v 3.540181 h -1.4083553 v -3.197739 q 0,-0.414789 -0.1109321,-0.636653 -0.2025717,-0.405144 -0.7717016,-0.405144 z m 8.1337892,3.260439 v 1.027328 l -0.6511232,0.02412 Q 1.611486,49.380324 1.254574,49.008942 1.0230635,48.772609 1.0230635,48.280649 V 45.044325 H 0.28994704 V 44.065229 H 1.0230635 v -1.466233 h 1.360124 v 1.466233 h 0.8536949 v 0.979096 H 2.3831875 v 2.778126 q 0,0.32315 0.081993,0.405143 0.081993,0.07717 0.501606,0.07717 0.062701,0 0.1302247,0 0.072347,-0.0048 0.1398709,-0.0096 z M 8.2153499,44.68259 q 0.6655926,0.834403 0.6655926,1.972662 0,1.157553 -0.6655926,1.982309 -0.6655926,0.819933 -2.0208935,0.819933 -1.3553008,0 -2.0208934,-0.819933 -0.6655926,-0.824756 -0.6655926,-1.982309 0,-1.138259 0.6655926,-1.972662 0.6655926,-0.834402 2.0208934,-0.834402 1.3553009,0 2.0208935,0.834402 z m -2.0257166,0.327974 q -0.6028918,0 -0.930865,0.429259 -0.32315,0.424435 -0.32315,1.215429 0,0.790995 0.32315,1.220254 0.3279732,0.429259 0.930865,0.429259 0.6028918,0 0.9260419,-0.429259 0.32315,-0.429259 0.32315,-1.220254 0,-0.790994 -0.32315,-1.215429 -0.3231501,-0.429259 -0.9260419,-0.429259 z m 10.5935877,1.176844 v 3.086807 h -1.403532 v -3.197739 q 0,-0.424436 -0.144694,-0.684885 -0.188102,-0.366558 -0.713824,-0.366558 -0.545014,0 -0.829579,0.366558 -0.279742,0.361735 -0.279742,1.036974 v 2.84565 H 12.04208 V 42.18903 h 1.36977 v 2.512853 q 0.299034,-0.458198 0.689708,-0.636654 0.395497,-0.183279 0.829579,-0.183279 0.487137,0 0.882634,0.16881 0.40032,0.168809 0.655946,0.516075 0.217041,0.294211 0.265273,0.607715 0.04823,0.308681 0.04823,1.012858 z m 5.494543,1.543404 q -0.05305,0.467844 -0.487136,0.950157 -0.675239,0.766879 -1.890669,0.766879 -1.003212,0 -1.770091,-0.646301 -0.766878,-0.6463 -0.766878,-2.102886 0,-1.364947 0.689708,-2.093241 0.694532,-0.728293 1.799029,-0.728293 0.655947,0 1.181668,0.24598 0.525722,0.24598 0.868165,0.776524 0.30868,0.467845 0.40032,1.085206 0.05305,0.361735 0.04341,1.041797 H 18.74723 q 0.02894,0.790994 0.496782,1.109321 0.284565,0.197748 0.684886,0.197748 0.424435,0 0.689708,-0.241156 0.144694,-0.130225 0.255626,-0.361735 z M 20.91764,46.119885 q -0.03376,-0.545015 -0.332796,-0.824757 -0.294211,-0.284564 -0.733117,-0.284564 -0.47749,0 -0.742762,0.299034 -0.26045,0.299034 -0.327973,0.810287 z m 2.263042,-1.533757 q 0.545015,-0.694532 1.871377,-0.694532 0.863341,0 1.533757,0.342443 0.670415,0.342442 0.670415,1.2926 v 2.411567 q 0,0.250803 0.0096,0.607715 0.01447,0.270096 0.08199,0.366559 0.06752,0.09646 0.202572,0.159163 v 0.202572 h -1.495172 q -0.0627,-0.159164 -0.08682,-0.299035 -0.02412,-0.139871 -0.03859,-0.318327 -0.284565,0.308681 -0.655946,0.525722 -0.443728,0.255626 -1.003212,0.255626 -0.713824,0 -1.181668,-0.405143 -0.463021,-0.409967 -0.463021,-1.157552 0,-0.969451 0.747586,-1.403533 0.409966,-0.236333 1.205784,-0.337619 l 0.467844,-0.05788 q 0.381027,-0.04823 0.545014,-0.120578 0.294211,-0.125402 0.294211,-0.390674 0,-0.32315 -0.226687,-0.443728 -0.221864,-0.125402 -0.655947,-0.125402 -0.487136,0 -0.689708,0.241157 -0.144694,0.178456 -0.192925,0.482313 h -1.326362 q 0.04341,-0.689708 0.38585,-1.133436 z m 1.022505,3.694521 q 0.192925,0.159163 0.472667,0.159163 0.443729,0 0.81511,-0.260449 0.376204,-0.260449 0.390674,-0.950157 v -0.511253 q -0.130225,0.08199 -0.265273,0.135048 -0.130224,0.04823 -0.361735,0.09164 l -0.30868,0.05788 q -0.434082,0.07717 -0.622185,0.188102 -0.318327,0.188103 -0.318327,0.5836 0,0.352089 0.197749,0.506429 z m 6.627979,-2.995167 q -0.829579,0 -1.114144,0.540191 -0.159163,0.303858 -0.159163,0.935688 v 2.512854 h -1.38424 v -5.257217 h 1.311893 v 0.916395 q 0.318326,-0.525721 0.55466,-0.718647 0.385851,-0.32315 1.003212,-0.32315 0.03859,0 0.0627,0.0048 0.02894,0 0.120578,0.0048 v 1.408355 q -0.130224,-0.01447 -0.23151,-0.01929 -0.101286,-0.0048 -0.163987,-0.0048 z m 4.781713,-1.268484 v 5.257217 h -1.393886 v -5.257217 z m 0,-1.895492 v 1.268484 h -1.393886 v -1.268484 z m 3.507406,0 v 1.118967 q -0.115755,-0.01447 -0.390674,-0.01929 -0.270095,-0.0096 -0.376204,0.120578 -0.101286,0.125401 -0.101286,0.279742 v 0.443728 h 0.901926 v 0.96945 h -0.901926 v 4.239536 h -1.36977 v -4.239536 h -0.766879 v -0.96945 h 0.752409 V 43.72761 q 0,-0.844049 0.284565,-1.162376 0.299035,-0.472667 1.442118,-0.472667 0.130224,0 0.236333,0.0096 0.106109,0.0048 0.289388,0.01929 z m 4.405512,1.895492 v 5.257217 h -1.393886 v -5.257217 z m 0,-1.895492 v 1.268484 h -1.393886 v -1.268484 z m 3.449529,6.173612 v 1.027328 l -0.651123,0.02412 q -0.974274,0.03376 -1.331186,-0.33762 -0.23151,-0.236333 -0.23151,-0.728293 V 45.044325 H 44.02839 v -0.979096 h 0.733117 v -1.466233 h 1.360124 v 1.466233 h 0.853695 v 0.979096 h -0.853695 v 2.778126 q 0,0.32315 0.08199,0.405143 0.08199,0.07717 0.501606,0.07717 0.0627,0 0.130225,0 0.07235,-0.0048 0.139871,-0.0096 z m 0.430253,-6.130204 h 1.316716 l -0.241157,2.937289 h -0.834402 z m 5.846631,2.093241 q 0.617362,0.395497 0.709001,1.360124 h -1.374593 q -0.02894,-0.265273 -0.149517,-0.419613 -0.226688,-0.279742 -0.771702,-0.279742 -0.448551,0 -0.641477,0.139871 -0.188102,0.139871 -0.188102,0.327973 0,0.236334 0.202572,0.342443 0.202571,0.110932 1.432471,0.381027 0.819933,0.192926 1.229899,0.5836 0.405143,0.395497 0.405143,0.988742 0,0.781348 -0.583599,1.278131 -0.578776,0.49196 -1.794206,0.49196 -1.239546,0 -1.832791,-0.520899 -0.588423,-0.525722 -0.588423,-1.336008 h 1.393886 q 0.04341,0.366558 0.188102,0.520898 0.255627,0.274919 0.945335,0.274919 0.405143,0 0.641477,-0.120578 0.241157,-0.120579 0.241157,-0.361735 0,-0.231511 -0.192926,-0.352089 -0.192925,-0.120579 -1.432471,-0.41479 -0.89228,-0.221864 -1.258838,-0.55466 -0.366558,-0.327974 -0.366558,-0.945335 0,-0.728293 0.56913,-1.249192 0.573953,-0.525721 1.610927,-0.525721 0.983919,0 1.606103,0.390674 z m 4.236692,0.327973 q 0.545015,-0.694532 1.871377,-0.694532 0.863341,0 1.533756,0.342443 0.670416,0.342442 0.670416,1.2926 v 2.411567 q 0,0.250803 0.0096,0.607715 0.01447,0.270096 0.08199,0.366559 0.06752,0.09646 0.202571,0.159163 v 0.202572 h -1.495171 q -0.0627,-0.159164 -0.08682,-0.299035 -0.02412,-0.139871 -0.03858,-0.318327 -0.284565,0.308681 -0.655946,0.525722 -0.443729,0.255626 -1.003212,0.255626 -0.713824,0 -1.181668,-0.405143 -0.463021,-0.409967 -0.463021,-1.157552 0,-0.969451 0.747586,-1.403533 0.409966,-0.236333 1.205783,-0.337619 l 0.467845,-0.05788 q 0.381027,-0.04823 0.545014,-0.120578 0.294211,-0.125402 0.294211,-0.390674 0,-0.32315 -0.226687,-0.443728 -0.221865,-0.125402 -0.655947,-0.125402 -0.487136,0 -0.689708,0.241157 -0.144694,0.178456 -0.192925,0.482313 h -1.326362 q 0.04341,-0.689708 0.38585,-1.133436 z m 1.022505,3.694521 q 0.192925,0.159163 0.472667,0.159163 0.443729,0 0.81511,-0.260449 0.376204,-0.260449 0.390674,-0.950157 v -0.511253 q -0.130225,0.08199 -0.265273,0.135048 -0.130224,0.04823 -0.361735,0.09164 l -0.30868,0.05788 q -0.434082,0.07717 -0.622185,0.188102 -0.318327,0.188103 -0.318327,0.5836 0,0.352089 0.197749,0.506429 z M -16.8636,54.792843 h -1.408356 q -0.03859,-0.294211 -0.197748,-0.530545 -0.231511,-0.318327 -0.718647,-0.318327 -0.694532,0 -0.950158,0.689708 -0.135048,0.366559 -0.135048,0.974274 0,0.578776 0.135048,0.930865 0.24598,0.655946 0.926042,0.655946 0.482313,0 0.684885,-0.260449 0.202572,-0.26045 0.24598,-0.675239 h 1.403532 q -0.04823,0.627007 -0.453375,1.186491 -0.6463,0.901926 -1.914784,0.901926 -1.268484,0 -1.866553,-0.752409 -0.598069,-0.752409 -0.598069,-1.953369 0,-1.355301 0.66077,-2.10771 0.660769,-0.752409 1.823144,-0.752409 0.988743,0 1.615751,0.443728 0.63183,0.443728 0.747586,1.567519 z m 3.300016,-0.617361 q -0.829579,0 -1.114144,0.540191 -0.159164,0.303857 -0.159164,0.935688 v 2.512853 h -1.38424 v -5.257217 h 1.311893 v 0.916396 q 0.318327,-0.525722 0.554661,-0.718647 0.38585,-0.32315 1.003212,-0.32315 0.03859,0 0.0627,0.0048 0.02894,0 0.120579,0.0048 v 1.408355 q -0.130225,-0.01447 -0.231511,-0.01929 -0.101286,-0.0048 -0.163986,-0.0048 z m 5.2967935,-0.602892 q 0.6655926,0.834402 0.6655926,1.972662 0,1.157552 -0.6655926,1.982308 -0.6655926,0.819933 -2.0208935,0.819933 -1.355301,0 -2.020893,-0.819933 -0.665593,-0.824756 -0.665593,-1.982308 0,-1.13826 0.665593,-1.972662 0.665592,-0.834403 2.020893,-0.834403 1.3553009,0 2.0208935,0.834403 z m -2.0257165,0.327973 q -0.602892,0 -0.930865,0.429259 -0.32315,0.424436 -0.32315,1.21543 0,0.790994 0.32315,1.220253 0.327973,0.429259 0.930865,0.429259 0.6028917,0 0.9260418,-0.429259 0.32315,-0.429259 0.32315,-1.220253 0,-0.790994 -0.32315,-1.21543 -0.3231501,-0.429259 -0.9260418,-0.429259 z m 7.3755655,4.263651 -0.824756,-3.829569 -0.8344024,3.829569 H -6.0037477 L -7.479627,52.906997 h 1.4758793 l 0.8199329,3.771692 0.7572321,-3.771692 h 1.393886 l 0.8006403,3.786161 0.8199329,-3.786161 H 0.02034756 L -1.503763,58.164214 Z M 7.3293809,53.57259 q 0.6655926,0.834402 0.6655926,1.972662 0,1.157552 -0.6655926,1.982308 -0.6655926,0.819933 -2.0208935,0.819933 -1.3553009,0 -2.0208935,-0.819933 -0.6655926,-0.824756 -0.6655926,-1.982308 0,-1.13826 0.6655926,-1.972662 0.6655926,-0.834403 2.0208935,-0.834403 1.3553009,0 2.0208935,0.834403 z m -2.0257166,0.327973 q -0.6028919,0 -0.930865,0.429259 -0.3231501,0.424436 -0.3231501,1.21543 0,0.790994 0.3231501,1.220253 0.3279731,0.429259 0.930865,0.429259 0.6028918,0 0.9260418,-0.429259 0.3231501,-0.429259 0.3231501,-1.220253 0,-0.790994 -0.3231501,-1.21543 -0.32315,-0.429259 -0.9260418,-0.429259 z m 6.0299107,0.274919 q -0.829579,0 -1.114144,0.540191 -0.159163,0.303857 -0.159163,0.935688 v 2.512853 h -1.38424 v -5.257217 h 1.3118927 v 0.916396 q 0.3183273,-0.525722 0.5546603,-0.718647 0.385851,-0.32315 1.003212,-0.32315 0.03858,0 0.0627,0.0048 0.02894,0 0.120578,0.0048 v 1.408355 q -0.130224,-0.01447 -0.23151,-0.01929 -0.101286,-0.0048 -0.163987,-0.0048 z m 3.566279,-0.699355 q 0.545014,-0.694531 1.871376,-0.694531 0.863341,0 1.533757,0.342442 0.670416,0.342443 0.670416,1.2926 v 2.411568 q 0,0.250803 0.0096,0.607715 0.01447,0.270095 0.08199,0.366558 0.06752,0.09646 0.202571,0.159163 v 0.202572 h -1.495172 q -0.0627,-0.159163 -0.08682,-0.299034 -0.02412,-0.139871 -0.03859,-0.318327 -0.284565,0.30868 -0.655946,0.525721 -0.443729,0.255627 -1.003212,0.255627 -0.713824,0 -1.181668,-0.405144 -0.463021,-0.409966 -0.463021,-1.157552 0,-0.96945 0.747585,-1.403532 0.409967,-0.236334 1.205784,-0.33762 l 0.467844,-0.05788 q 0.381028,-0.04823 0.545014,-0.120579 0.294212,-0.125401 0.294212,-0.390674 0,-0.32315 -0.226688,-0.443728 -0.221864,-0.125401 -0.655946,-0.125401 -0.487137,0 -0.689708,0.241156 -0.144694,0.178456 -0.192926,0.482314 h -1.326362 q 0.04341,-0.689709 0.385851,-1.133437 z m 1.022505,3.694521 q 0.192925,0.159164 0.472667,0.159164 0.443728,0 0.81511,-0.26045 0.376204,-0.260449 0.390674,-0.950157 v -0.511252 q -0.130225,0.08199 -0.265273,0.135047 -0.130225,0.04823 -0.361735,0.09164 l -0.308681,0.05788 q -0.434082,0.07717 -0.622184,0.188102 -0.318327,0.188102 -0.318327,0.583599 0,0.352089 0.197749,0.506429 z m 7.926397,1.914785 q 0.221864,0.188102 0.747586,0.188102 0.742763,0 0.993566,-0.496783 0.163986,-0.318327 0.163986,-1.070736 v -0.337619 q -0.197748,0.337619 -0.424435,0.506429 -0.409967,0.313504 -1.065913,0.313504 -1.012858,0 -1.620573,-0.709001 -0.602892,-0.713824 -0.602892,-1.929254 0,-1.172022 0.583599,-1.967839 0.583599,-0.80064 1.654335,-0.80064 0.395497,0 0.689709,0.120578 0.501606,0.207395 0.810286,0.762055 v -0.757232 h 1.336008 v 4.987122 q 0,1.017681 -0.342442,1.533756 -0.588423,0.887457 -2.257227,0.887457 -1.008035,0 -1.644689,-0.395497 -0.636654,-0.395497 -0.704178,-1.181668 h 1.495172 q 0.05788,0.241157 0.188102,0.347266 z m -0.23151,-2.715425 q 0.279742,0.665593 1.003212,0.665593 0.482313,0 0.81511,-0.361736 0.332796,-0.366558 0.332796,-1.162375 0,-0.747586 -0.318327,-1.13826 -0.313504,-0.390674 -0.844049,-0.390674 -0.72347,0 -0.998388,0.680062 -0.144695,0.361735 -0.144695,0.89228 0,0.458198 0.154341,0.81511 z m 6.965595,-2.445329 q -0.699354,0 -0.959804,0.593245 -0.135047,0.313504 -0.135047,0.800641 v 2.845649 h -1.369771 v -5.247571 h 1.326362 v 0.766879 q 0.265273,-0.405143 0.501606,-0.583599 0.424436,-0.318327 1.075559,-0.318327 0.81511,0 1.331186,0.429259 0.520898,0.424436 0.520898,1.413178 v 3.540181 h -1.408355 v -3.197738 q 0,-0.41479 -0.110932,-0.636654 -0.202572,-0.405143 -0.771702,-0.405143 z m 7.655308,-0.352089 q 0.665592,0.834402 0.665592,1.972662 0,1.157552 -0.665592,1.982308 -0.665593,0.819933 -2.020894,0.819933 -1.355301,0 -2.020893,-0.819933 -0.665593,-0.824756 -0.665593,-1.982308 0,-1.13826 0.665593,-1.972662 0.665592,-0.834403 2.020893,-0.834403 1.355301,0 2.020894,0.834403 z m -2.025717,0.327973 q -0.602892,0 -0.930865,0.429259 -0.32315,0.424436 -0.32315,1.21543 0,0.790994 0.32315,1.220253 0.327973,0.429259 0.930865,0.429259 0.602892,0 0.926042,-0.429259 0.32315,-0.429259 0.32315,-1.220253 0,-0.790994 -0.32315,-1.21543 -0.32315,-0.429259 -0.926042,-0.429259 z m 6.338592,0.453375 q -0.173633,-0.381028 -0.680062,-0.381028 -0.588423,0 -0.790994,0.381028 -0.110933,0.217041 -0.110933,0.6463 v 3.163976 h -1.393886 v -5.247571 h 1.336009 v 0.766879 q 0.255626,-0.409967 0.482313,-0.583599 0.40032,-0.308681 1.036974,-0.308681 0.602892,0 0.974273,0.265272 0.299035,0.24598 0.453375,0.631831 0.270096,-0.463021 0.670416,-0.680062 0.424436,-0.217041 0.945334,-0.217041 0.347266,0 0.684885,0.135048 0.33762,0.135047 0.612539,0.472667 0.221864,0.274919 0.299034,0.675239 0.04823,0.265272 0.04823,0.776524 l -0.0096,3.313494 h -1.408355 v -3.347255 q 0,-0.299035 -0.09646,-0.49196 -0.183279,-0.366558 -0.675239,-0.366558 -0.56913,0 -0.786171,0.472667 -0.110932,0.250803 -0.110932,0.602892 v 3.130214 h -1.38424 V 55.034 q 0,-0.467844 -0.09646,-0.680062 z m 10.042759,2.266873 q -0.05305,0.467844 -0.487136,0.950157 -0.675239,0.766879 -1.890669,0.766879 -1.003212,0 -1.77009,-0.6463 -0.766879,-0.6463 -0.766879,-2.102887 0,-1.364947 0.689708,-2.09324 0.694532,-0.728294 1.79903,-0.728294 0.655946,0 1.181668,0.24598 0.525721,0.24598 0.868164,0.776525 0.308681,0.467844 0.40032,1.085205 0.05306,0.361735 0.04341,1.041797 h -3.598058 q 0.02894,0.790994 0.496783,1.109321 0.284565,0.197749 0.684885,0.197749 0.424436,0 0.689708,-0.241157 0.144694,-0.130225 0.255626,-0.361735 z m -1.360124,-1.610927 q -0.03376,-0.545014 -0.332796,-0.824756 -0.294211,-0.284565 -0.733116,-0.284565 -0.477491,0 -0.742763,0.299034 -0.260449,0.299035 -0.327973,0.810287 z"
       id="text2"
       style="font-weight:bold;font-size:9.87778px;line-height:0.9;font-family:Helvetica;-inkscape-font-specification:'Helvetica Bold';text-align:center;letter-spacing:-0.288396px;text-anchor:middle;white-space:pre;inline-size:97.0281;fill:#ffffff;stroke:#000000;stroke-width:2;paint-order:markers stroke fill"
       transform="translate(32.672493,2.1163337)"
       aria-label="Use the &quot;Listen&quot; button to hear if it's a crow or a gnome" /></g></svg>
